<?xml version="1.0" encoding="UTF-8" standalone="no"?>
<svg
   xmlns:dc="http://purl.org/dc/elements/1.1/"
   xmlns:cc="http://creativecommons.org/ns#"
   xmlns:rdf="http://www.w3.org/1999/02/22-rdf-syntax-ns#"
   xmlns:svg="http://www.w3.org/2000/svg"
   xmlns="http://www.w3.org/2000/svg"
   viewBox="0 0 188.97533 188.37447"
   height="188.37447"
   width="188.97533"
   xml:space="preserve"
   id="svg2"
   version="1.1"><metadata
     id="metadata8"><rdf:RDF><cc:Work
         rdf:about=""><dc:format>image/svg+xml</dc:format><dc:type
           rdf:resource="http://purl.org/dc/dcmitype/StillImage" /><dc:title></dc:title></cc:Work></rdf:RDF></metadata><defs
     id="defs6" /><g
     transform="matrix(1.3333333,0,0,-1.3333333,-56.692665,245.06766)"
     id="g10"><g
       transform="scale(0.1)"
       id="g12"><path
         id="path14"
         style="fill:#007c5a;fill-opacity:1;fill-rule:nonzero;stroke:none"
         d="m 817.297,646.941 h -7.281 c -12.926,0 -23.411,10.481 -23.411,23.411 v 443.798 c 0,12.93 10.485,23.41 23.411,23.41 h 7.281 c 12.922,0 23.406,-10.48 23.406,-23.41 V 670.352 c 0,-12.93 -10.484,-23.411 -23.406,-23.411" /><path
         id="path16"
         style="fill:#007c5a;fill-opacity:1;fill-rule:nonzero;stroke:none"
         d="m 600.73,646.941 h -7.277 c -12.926,0 -23.402,10.481 -23.402,23.411 v 443.798 c 0,12.93 10.476,23.41 23.402,23.41 h 7.277 c 12.93,0 23.411,-10.48 23.411,-23.41 V 670.352 c 0,-12.93 -10.481,-23.411 -23.411,-23.411" /><path
         id="path18"
         style="fill:#007c5a;fill-opacity:1;fill-rule:nonzero;stroke:none"
         d="M 845.398,1112.2 H 562.25 c -12.93,0 -23.406,10.48 -23.406,23.41 0,12.93 10.476,23.4 23.406,23.4 h 283.148 c 12.926,0 23.407,-10.47 23.407,-23.4 0,-12.93 -10.481,-23.41 -23.407,-23.41" /><path
         id="path20"
         style="fill:#007c5a;fill-opacity:1;fill-rule:nonzero;stroke:none"
         d="m 1247.51,646.941 h -7.28 c -12.93,0 -23.41,10.481 -23.41,23.411 v 443.798 c 0,12.93 10.48,23.41 23.41,23.41 h 7.28 c 12.92,0 23.4,-10.48 23.4,-23.41 V 670.352 c 0,-12.93 -10.48,-23.411 -23.4,-23.411" /><path
         id="path22"
         style="fill:#007c5a;fill-opacity:1;fill-rule:nonzero;stroke:none"
         d="m 1030.95,646.941 h -7.28 c -12.93,0 -23.41,10.481 -23.41,23.411 v 443.798 c 0,12.93 10.48,23.41 23.41,23.41 h 7.28 c 12.93,0 23.41,-10.48 23.41,-23.41 V 670.352 c 0,-12.93 -10.48,-23.411 -23.41,-23.411" /><path
         id="path24"
         style="fill:#007c5a;fill-opacity:1;fill-rule:nonzero;stroke:none"
         d="M 1278.14,1112.2 H 989.578 c -12.93,0 -23.406,10.48 -23.406,23.41 0,12.93 10.476,23.4 23.406,23.4 h 288.562 c 12.93,0 23.41,-10.47 23.41,-23.4 0,-12.93 -10.48,-23.41 -23.41,-23.41" /><path
         id="path26"
         style="fill:#007c5a;fill-opacity:1;fill-rule:nonzero;stroke:none"
         d="m 1673.71,646.941 h -7.29 c -12.92,0 -23.4,10.481 -23.4,23.411 v 443.798 c 0,12.93 10.48,23.41 23.4,23.41 h 7.29 c 12.93,0 23.4,-10.48 23.4,-23.41 V 670.352 c 0,-12.93 -10.47,-23.411 -23.4,-23.411" /><path
         id="path28"
         style="fill:#007c5a;fill-opacity:1;fill-rule:nonzero;stroke:none"
         d="m 1457.14,646.941 h -7.27 c -12.93,0 -23.41,10.481 -23.41,23.411 v 443.798 c 0,12.93 10.48,23.41 23.41,23.41 h 7.27 c 12.93,0 23.41,-10.48 23.41,-23.41 V 670.352 c 0,-12.93 -10.48,-23.411 -23.41,-23.411" /><path
         id="path30"
         style="fill:#007c5a;fill-opacity:1;fill-rule:nonzero;stroke:none"
         d="m 1705.46,1112.2 h -288.55 c -12.93,0 -23.41,10.48 -23.41,23.41 0,12.93 10.48,23.4 23.41,23.4 h 288.55 c 12.93,0 23.41,-10.47 23.41,-23.4 0,-12.93 -10.48,-23.41 -23.41,-23.41" /><path
         id="path32"
         style="fill:#007c5a;fill-opacity:1;fill-rule:nonzero;stroke:none"
         d="m 502.75,1243.27 h 1262.22 c 12.93,0 23.4,10.48 23.4,23.41 v 78.85 c 0,7.92 -4,15.3 -10.64,19.62 l -631.11,410.51 c -7.76,5.04 -17.76,5.04 -25.53,0 L 489.984,1365.15 c -6.64,-4.32 -10.644,-11.7 -10.644,-19.62 v -78.85 c 0,-12.93 10.48,-23.41 23.41,-23.41 z m 1316.31,-46.8 H 448.656 c -12.929,0 -23.406,10.47 -23.406,23.39 v 149.05 c 0,7.91 4.004,15.3 10.645,19.62 l 685.195,445.69 c 7.77,5.05 17.77,5.05 25.53,0 l 685.2,-445.69 c 6.64,-4.32 10.65,-11.71 10.65,-19.62 v -149.05 c 0,-12.92 -10.48,-23.39 -23.41,-23.39" /><path
         id="path34"
         style="fill:#007c5a;fill-opacity:1;fill-rule:nonzero;stroke:none"
         d="m 1253.41,1492.3 h -20 c -0.01,-28.2 -11.38,-53.55 -29.85,-72.06 -18.51,-18.48 -43.87,-29.85 -72.08,-29.86 -28.21,0.01 -53.57,11.38 -72.08,29.86 -18.47,18.51 -29.84,43.86 -29.85,72.06 0.01,28.22 11.38,53.58 29.85,72.09 18.51,18.47 43.87,29.84 72.08,29.85 28.21,-0.01 53.57,-11.38 72.08,-29.85 18.47,-18.51 29.84,-43.87 29.85,-72.09 h 20 20 c -0.01,78.4 -63.53,141.93 -141.93,141.94 -78.39,-0.01 -141.917,-63.54 -141.929,-141.94 0.012,-78.38 63.539,-141.91 141.929,-141.92 78.4,0.01 141.92,63.54 141.93,141.92 h -20" /><path
         id="path36"
         style="fill:#007c5a;fill-opacity:1;fill-rule:nonzero;stroke:none"
         d="M 502.695,472.012 H 1765.02 c 12.92,0 23.4,10.476 23.4,23.41 v 104.707 c 0,12.93 -10.48,23.41 -23.4,23.41 H 502.695 c -12.929,0 -23.41,-10.48 -23.41,-23.41 V 495.422 c 0,-12.934 10.481,-23.41 23.41,-23.41 z M 1789.08,425.199 H 469.555 c -24.496,0 -44.36,19.86 -44.36,44.36 v 151.75 c 0,27.082 21.957,49.043 49.047,49.043 H 1799.09 c 23.98,0 43.42,-19.454 43.42,-43.442 V 478.641 c 0,-29.512 -23.92,-53.442 -53.43,-53.442" /></g></g></svg>