<?xml version="1.0" encoding="UTF-8" standalone="no"?>
<svg
   xmlns:dc="http://purl.org/dc/elements/1.1/"
   xmlns:cc="http://creativecommons.org/ns#"
   xmlns:rdf="http://www.w3.org/1999/02/22-rdf-syntax-ns#"
   xmlns:svg="http://www.w3.org/2000/svg"
   xmlns="http://www.w3.org/2000/svg"
   viewBox="0 0 143.68146 142.38907"
   height="142.38907"
   width="143.68146"
   xml:space="preserve"
   id="svg2"
   version="1.1"><metadata
     id="metadata8"><rdf:RDF><cc:Work
         rdf:about=""><dc:format>image/svg+xml</dc:format><dc:type
           rdf:resource="http://purl.org/dc/dcmitype/StillImage" /><dc:title></dc:title></cc:Work></rdf:RDF></metadata><defs
     id="defs6" /><g
     transform="matrix(1.3333333,0,0,-1.3333333,-77.947864,223.15733)"
     id="g10"><g
       transform="scale(0.1)"
       id="g12"><path
         id="path14"
         style="fill:#ffffff;fill-opacity:1;fill-rule:nonzero;stroke:none"
         d="m 1642.23,1139.72 h -20 C 1622.21,1003.31 1566.47,879.98 1476.2,790.5 1385.88,701.059 1261.28,645.77 1123.42,645.762 985.551,645.77 860.945,701.059 770.637,790.5 c -90.282,89.48 -146.02,212.81 -146.032,349.22 0.012,136.41 55.75,259.74 146.032,349.21 90.308,89.44 214.914,144.74 352.783,144.75 137.86,-0.01 262.46,-55.31 352.78,-144.75 90.27,-89.47 146.01,-212.8 146.03,-349.21 h 20 19.99 c 0.02,147.44 -60.38,281.09 -157.87,377.63 -97.47,96.58 -232.27,156.34 -380.93,156.33 -148.674,0.01 -283.475,-59.75 -380.936,-156.33 -97.488,-96.54 -157.89,-230.19 -157.875,-377.63 -0.015,-147.439 60.387,-281.091 157.875,-377.63 97.461,-96.578 232.258,-156.34 380.936,-156.328 148.66,-0.012 283.46,59.75 380.93,156.328 97.49,96.539 157.89,230.191 157.87,377.63 h -19.99" /><path
         id="path16"
         style="fill:#ffffff;fill-opacity:1;fill-rule:nonzero;stroke:none"
         d="m 986.836,1635.67 -16.426,-11.42 0.125,-0.18 c 1.598,-2.31 17.445,-25.62 32.585,-55.56 7.57,-14.95 14.95,-31.56 20.31,-47.76 5.39,-16.19 8.65,-32 8.61,-44.77 0,-6.93 -0.92,-12.9 -2.59,-17.74 -1.69,-4.87 -3.99,-8.64 -7.34,-11.99 -22.696,-22.47 -45.387,-39.57 -70.462,-51.14 -25.101,-11.54 -52.785,-17.84 -86.726,-17.87 -9.926,0 -20.375,0.55 -31.402,1.69 -5.993,0.62 -11.594,0.93 -16.856,0.93 -15.555,-0.07 -28.371,-2.45 -39.285,-9.12 -5.399,-3.35 -10.191,-8.01 -13.418,-13.69 -3.262,-5.66 -4.781,-12.12 -4.75,-18.13 0.062,-10.25 3.769,-19.04 8.793,-26.68 7.672,-11.44 18.875,-20.95 32.605,-28.26 13.739,-7.23 30.145,-12.08 48.102,-12.53 27.41,-0.52 60.258,-13.57 86.742,-29.56 13.258,-7.93 24.992,-16.5 33.793,-24.05 4.399,-3.77 8.063,-7.28 10.742,-10.19 2.684,-2.86 4.383,-5.26 4.692,-5.86 2.871,-5.06 7.324,-12.77 13.355,-21.39 9.085,-12.95 21.765,-28.2 39.205,-40.67 17.34,-12.45 39.96,-21.98 66.68,-21.94 7.5,0 15.28,0.74 23.3,2.29 18.25,3.58 32.01,5.44 40.68,5.4 4.71,0.01 7.78,-0.54 9.17,-1.01 l 0.98,-0.4 0.16,-0.1 0.16,0.21 -0.19,-0.18 0.03,-0.03 0.16,0.21 -0.19,-0.18 0.28,-0.48 c 0.66,-1.11 1.94,-5.94 1.87,-14.32 0.01,-6.2 -0.56,-14.21 -1.6,-23.84 v 0.03 c -1.42,-12.89 -5.28,-24.68 -10.91,-35.7 -8.43,-16.51 -20.97,-31.22 -34.54,-43.68 -13.55,-12.479 -28,-22.658 -39.87,-30.498 -10.94,-7.262 -19.31,-16.524 -26.44,-25.91 -10.63,-14.114 -18.79,-28.903 -26.36,-39.793 -3.73,-5.45 -7.28,-9.848 -10.25,-12.649 -3.01,-2.851 -5.15,-3.922 -6.44,-4.281 -5.72,-1.649 -18.69,-3.969 -33.943,-3.938 -20.098,-0.019 -44.336,3.848 -65.528,15.938 -10.64,6.051 -20.64,14.101 -29.531,25.07 -8.883,10.981 -16.711,24.942 -22.582,43.121 -17.125,53 -17.91,99.95 -21.453,142.6 -1.82,21.32 -4.313,41.68 -10.856,61.13 -6.48,19.4 -17.589,37.87 -35.156,52.77 -21.043,17.9 -46.746,27.69 -71.984,33.41 -25.293,5.68 -50.41,7.22 -71.117,7.23 -28.008,-0.01 -47.938,-2.87 -48.594,-2.96 l 2.859,-19.8 19.707,-3.4 -5.742,0.99 5.738,-1.02 0.004,0.03 -5.742,0.99 5.738,-1.02 c 0.086,0.7 13.164,73.3 64.25,155.5 25.535,41.12 60.496,84.64 108.035,123.21 47.559,38.56 107.68,72.24 184.204,93.68 l -5.391,19.26 -16.426,-11.42 16.426,11.42 -5.395,19.26 c -82.453,-23.07 -148.121,-59.9 -199.836,-102.13 -77.613,-63.36 -123.789,-138.55 -150.621,-197.83 -26.836,-59.32 -34.441,-102.9 -34.66,-104.11 -1.094,-6.33 0.899,-12.75 5.371,-17.35 4.477,-4.6 10.844,-6.77 17.196,-5.85 l 0.093,0.01 c 1.559,0.22 19.098,2.54 42.786,2.54 18.656,0.01 41.136,-1.46 62.332,-6.25 21.242,-4.74 40.914,-12.87 54.793,-24.8 11.707,-10.1 18.378,-21.03 23.238,-35.17 7.269,-21.09 8.836,-49.65 11.301,-84.1 2.558,-34.42 6.476,-74.66 20.836,-119.101 7.218,-22.418 17.402,-41.008 29.562,-56.008 18.238,-22.562 40.785,-36.761 63.055,-44.992 22.301,-8.269 44.347,-10.84 63.09,-10.848 19.183,0.039 34.693,2.618 44.833,5.45 6.27,1.781 11.79,4.769 16.5,8.23 8.26,6.109 14.36,13.539 19.91,21.18 8.22,11.469 15.2,23.789 22.47,34.418 7.19,10.66 14.62,19.281 21.76,23.922 16.94,11.199 40.18,27.621 60.64,50.269 10.23,11.34 19.78,24.3 27.34,39.06 7.55,14.75 13.07,31.36 15.06,49.56 l 0.01,0.03 c 1.12,10.42 1.82,19.65 1.83,28.14 -0.01,7.59 -0.54,14.62 -2.23,21.52 -1.27,5.15 -3.25,10.3 -6.37,15.06 -4.59,7.22 -12,12.93 -19.76,15.83 -7.8,2.98 -15.72,3.84 -24.07,3.87 -13.66,-0.04 -29.03,-2.42 -48.3,-6.13 -5.6,-1.08 -10.8,-1.56 -15.68,-1.56 -11.56,0.02 -21.47,2.61 -30.55,6.88 -13.57,6.37 -25.18,16.89 -34.3,27.84 -9.14,10.95 -15.62,21.98 -19.61,29.03 -2.77,4.8 -6.09,8.9 -10.1,13.28 -7.02,7.56 -16.192,15.62 -27.215,23.88 -16.52,12.35 -37.086,24.98 -59.75,34.9 -22.676,9.88 -47.45,17.16 -72.692,17.83 -14.984,0.32 -28.875,5.88 -38.262,12.82 -4.683,3.42 -8.175,7.16 -10.113,10.11 -0.976,1.46 -1.562,2.71 -1.851,3.53 l -0.243,0.89 -0.023,0.16 -0.234,-0.02 h 0.226 l 0.008,0.02 -0.234,-0.02 h 0.226 -3.527 l 3.012,-1.72 0.515,1.72 h -3.527 l 3.012,-1.72 -2.829,1.62 2.457,-2.15 0.372,0.53 -2.829,1.62 2.457,-2.15 -1.121,0.98 1.035,-1.07 0.086,0.09 -1.121,0.98 1.035,-1.07 0.106,0.08 c 0.359,0.27 1.859,1.16 4.906,1.89 3.024,0.74 7.516,1.32 13.422,1.31 3.691,0 7.941,-0.22 12.734,-0.72 12.29,-1.26 24.118,-1.9 35.524,-1.9 38.949,-0.03 73.082,7.49 103.484,21.55 30.434,14.04 56.934,34.35 81.854,59.05 8.01,7.91 13.63,17.46 17.03,27.41 3.41,9.98 4.75,20.36 4.75,30.73 -0.04,19.76 -4.72,39.78 -11.24,59.16 -9.85,29.03 -24.13,56.65 -35.99,77.33 -11.86,20.66 -21.32,34.27 -21.55,34.62 -4.865,6.99 -13.619,10.14 -21.819,7.84 l 5.395,-19.26" /><path
         id="path18"
         style="fill:#ffffff;fill-opacity:1;fill-rule:nonzero;stroke:none"
         d="m 1335.06,1609.1 -10.22,17.2 c -0.66,-0.42 -22.07,-13.09 -44.3,-33.1 -11.11,-10.05 -22.48,-21.92 -31.58,-35.69 -4.53,-6.89 -8.5,-14.28 -11.4,-22.28 -2.91,-7.97 -4.74,-16.6 -4.74,-25.66 0,-2.71 0.15,-5.59 0.57,-8.58 l -0.03,0.15 c 3.38,-26.7 16.63,-48.41 34.17,-62.6 17.55,-14.26 39.05,-21.53 60.31,-21.56 9.05,0 18.09,1.34 26.76,4.17 6.83,2.25 12.95,5.53 18.9,9.34 10.37,6.7 20.28,15.16 30.04,24.11 14.56,13.41 28.73,28.03 40.57,38.72 5.87,5.32 11.18,9.64 14.98,12.11 1.88,1.24 3.36,1.99 4.03,2.26 l 0.33,0.12 v 0 l -1.5,5.86 v -6.01 l 1.5,0.15 -1.5,5.86 v -6.01 10.33 l -2.15,-10.1 2.15,-0.23 v 10.33 l -2.15,-10.1 c 9.1,-1.93 18.3,2.64 22.26,11.05 3.96,8.42 1.61,18.42 -5.67,24.19 -0.23,0.18 -19.25,15.25 -45.27,33.26 -26.13,18.02 -58.85,38.94 -88.44,51.2 -5.81,2.39 -12.44,1.91 -17.84,-1.29 l 10.22,-17.2 -7.62,-18.49 c 24.35,-9.97 56.08,-29.88 80.92,-47.12 12.47,-8.62 23.32,-16.6 31.03,-22.39 3.85,-2.9 6.92,-5.25 9,-6.87 1.05,-0.8 1.85,-1.43 2.38,-1.84 l 0.77,-0.61 12.42,15.68 4.16,19.56 c -2.13,0.45 -4.22,0.64 -6.17,0.64 -8.36,-0.13 -14.36,-2.86 -19.81,-5.76 -9.41,-5.27 -17.78,-12.47 -26.78,-20.67 -13.34,-12.25 -27.46,-26.82 -40.81,-38.93 -6.64,-6.04 -13.07,-11.44 -18.77,-15.5 -5.66,-4.08 -10.67,-6.71 -13.6,-7.63 -4.39,-1.43 -9.26,-2.19 -14.34,-2.19 -11.99,-0.04 -24.99,4.32 -35.04,12.56 -10.06,8.31 -17.52,19.96 -19.76,36.74 l -0.03,0.15 c -0.12,0.92 -0.19,1.96 -0.19,3.14 0,3.62 0.73,7.61 2.33,12 2.76,7.68 8.3,16.43 15.41,24.8 10.64,12.61 24.56,24.31 35.69,32.57 5.56,4.14 10.42,7.45 13.84,9.69 1.71,1.11 3.06,1.96 3.95,2.52 l 0.99,0.61 0.21,0.13 0.03,0.01 -10.21,17.2 -7.62,-18.49 7.62,18.49" /><path
         id="path20"
         style="fill:#ffffff;fill-opacity:1;fill-rule:nonzero;stroke:none"
         d="m 1624.59,1269.63 -5.43,19.25 1.12,-4.01 -1.11,4.01 h -0.01 l 1.12,-4.01 -1.11,4.01 c -0.72,-0.22 -30.18,-8.19 -70.27,-8.17 -27.63,-0.01 -60.19,3.77 -92.04,15.9 -27.5,10.4 -48.89,15.53 -67.64,15.6 -10.84,0.02 -20.9,-1.87 -29.77,-5.86 -6.65,-2.96 -12.49,-7.07 -17.32,-11.76 -7.28,-7.07 -12.35,-15.21 -16.48,-23.45 -4.13,-8.26 -7.37,-16.78 -10.63,-25.36 -6.07,-16.14 -8.71,-34.54 -8.74,-53.88 0.01,-22.28 3.6,-45.78 11,-67.89 7.43,-22.07 18.63,-42.91 34.99,-59.1 11.51,-11.35 23.85,-18.99 34.91,-25.27 8.32,-4.71 15.97,-8.7 22.44,-12.74 9.79,-6.13 16.59,-11.87 21.67,-20.24 5.03,-8.41 8.99,-20.601 9.37,-41.41 0.04,-2.371 0.05,-4.75 0.06,-7.109 0.03,-30.02 -3.15,-53.95 -3.21,-78.063 -0.02,-17.527 1.9,-35.387 8.93,-53.68 6.99,-18.296 18.77,-36.468 36.76,-55.937 3.68,-3.981 8.84,-6.313 14.26,-6.422 5.41,-0.129 10.67,1.973 14.52,5.789 0.66,0.672 29.38,29.184 61.25,76.852 31.82,47.679 66.99,114.59 79.46,192.61 l -19.75,3.14 19.69,-3.49 c 0.11,0.7 8.96,50.48 8.98,111.08 -0.06,40.78 -3.88,86.43 -18.21,126.39 -3.56,9.88 -14.14,15.32 -24.24,12.47 l 5.43,-19.25 -18.82,-6.78 c 11.88,-32.72 15.9,-74.74 15.84,-112.83 0,-28.35 -2.11,-54.58 -4.22,-73.59 -1.05,-9.51 -2.1,-17.23 -2.88,-22.52 -0.39,-2.64 -0.72,-4.68 -0.94,-6.04 l -0.25,-1.52 -0.08,-0.43 -0.06,-0.35 c -11.05,-69.808 -43.39,-132.109 -73.21,-176.672 -14.89,-22.277 -29.09,-40.117 -39.49,-52.296 -5.2,-6.09 -9.45,-10.762 -12.35,-13.872 -1.46,-1.558 -2.58,-2.718 -3.31,-3.48 l -0.81,-0.82 -0.18,-0.18 -0.01,-0.02 14.08,-14.199 14.69,13.559 c -15.56,16.89 -23.98,30.57 -28.79,43.109 -4.78,12.563 -6.27,24.539 -6.29,39.379 -0.05,20.203 3.17,45.301 3.2,78.063 0,2.519 -0.01,5.097 -0.05,7.75 -0.37,22.789 -4.49,41.119 -12.12,56.019 -5.67,11.15 -13.26,20.05 -21.33,27.01 -12.17,10.47 -25.03,16.96 -36.5,23.39 -11.54,6.39 -21.74,12.57 -30.36,21.09 -10.44,10.23 -19.26,25.67 -25.14,43.32 -5.92,17.61 -8.95,37.28 -8.94,55.18 -0.02,15.5 2.32,29.7 6.16,39.72 2.83,7.49 5.43,14.17 8.02,19.64 3.91,8.3 7.69,13.41 11.34,16.18 1.87,1.44 3.79,2.49 6.47,3.34 2.68,0.83 6.18,1.43 10.96,1.43 10.95,0.07 28.49,-3.46 53.42,-12.99 37.73,-14.33 75.07,-18.5 106.26,-18.51 46.76,0.03 79.94,9.36 81.12,9.67 l -5.43,19.25 -18.82,-6.78 18.82,6.78" /><path
         id="path22"
         style="fill:#ffffff;fill-opacity:1;fill-rule:nonzero;stroke:none"
         d="m 976.738,646.621 19.883,-2.133 -2.148,0.231 2.148,-0.25 v 0.019 l -2.148,0.231 2.148,-0.25 c 0.035,0.941 4.459,36.59 21.669,69.929 8.55,16.704 20.11,32.641 35.09,44.122 15.05,11.46 33.24,19.031 58.25,19.41 h 0.03 l 2.01,0.011 c 26.16,-0.043 43.21,-5.679 55.13,-13.211 8.94,-5.699 15.3,-12.66 20.29,-20.589 7.46,-11.86 11.45,-26.051 13.81,-38.879 1.19,-6.422 1.99,-12.442 2.81,-17.871 0.41,-2.731 0.82,-5.321 1.37,-7.95 0.59,-2.652 1.16,-5.269 2.76,-8.839 4.73,-10.231 11.27,-20.051 16.78,-27.891 5.48,-7.762 9.91,-13.27 10.08,-13.481 l 15.59,12.52 -5.06,19.352 -0.07,-0.012 c -2.39,-0.641 -57.37,-14.418 -129.08,-14.399 -41.88,-0.011 -89.4,4.7 -135.404,19.02 l -5.938,-19.09 19.883,-2.133 -19.883,2.133 -5.941,-19.101 c 51.073,-15.879 102.453,-20.821 147.283,-20.829 79.22,0.028 138.2,15.457 139.27,15.719 6.54,1.699 11.82,6.66 13.93,13.07 2.12,6.411 0.83,13.54 -3.39,18.801 l -0.13,0.16 c -0.76,0.957 -4.83,6.118 -9.39,12.661 -4.56,6.476 -9.64,14.57 -12.17,20.179 l -5.54,-2.531 5.84,1.77 -0.31,0.769 -5.53,-2.539 5.84,1.77 c -0.13,0.25 -0.81,3.671 -1.43,8.082 -1.16,7.878 -2.67,19.476 -6.03,32.367 -2.53,9.691 -6.12,20.191 -11.61,30.66 -8.17,15.66 -20.96,31.332 -39.91,42.543 -18.92,11.258 -43.39,17.797 -73.85,17.769 l -2.52,-0.019 h 0.03 c -33.89,-0.293 -62.01,-11.742 -83.19,-28.473 -31.881,-25.148 -48.97,-60.371 -58.83,-88.82 -9.785,-28.547 -12.187,-50.899 -12.308,-51.879 -1.024,-9.488 4.832,-18.398 13.945,-21.23 l 5.941,19.101" /></g></g></svg>