<?xml version="1.0" encoding="UTF-8" standalone="no"?>
<svg
   xmlns:dc="http://purl.org/dc/elements/1.1/"
   xmlns:cc="http://creativecommons.org/ns#"
   xmlns:rdf="http://www.w3.org/1999/02/22-rdf-syntax-ns#"
   xmlns:svg="http://www.w3.org/2000/svg"
   xmlns="http://www.w3.org/2000/svg"
   viewBox="0 0 259.948 194.30066"
   height="194.30066"
   width="259.948"
   xml:space="preserve"
   id="svg2"
   version="1.1"><metadata
     id="metadata8"><rdf:RDF><cc:Work
         rdf:about=""><dc:format>image/svg+xml</dc:format><dc:type
           rdf:resource="http://purl.org/dc/dcmitype/StillImage" /><dc:title></dc:title></cc:Work></rdf:RDF></metadata><defs
     id="defs6" /><g
     transform="matrix(1.3333333,0,0,-1.3333333,-44.402666,271.13329)"
     id="g10"><g
       transform="scale(0.1)"
       id="g12"><path
         id="path14"
         style="fill:none;stroke:#ffffff;stroke-width:40;stroke-linecap:round;stroke-linejoin:round;stroke-miterlimit:10;stroke-dasharray:none;stroke-opacity:1"
         d="m 1304.83,2013.5 c 0,0 -264.89,-138.86 -573.939,-162 v -455.16 c 0,-209.78 90.476,-408.309 246.129,-540.121 l 291.29,-246.66 c 21.08,-17.84 51.97,-17.84 73.06,0 l 291.29,246.66 c 155.65,131.812 246.13,330.341 246.13,540.121 v 455.16 c -309.05,23.14 -573.96,162 -573.96,162 z" /><path
         id="path16"
         style="fill:none;stroke:#ffffff;stroke-width:40;stroke-linecap:butt;stroke-linejoin:miter;stroke-miterlimit:10;stroke-dasharray:none;stroke-opacity:1"
         d="M 1419.68,919.129 H 1190 c -59.58,0 -107.88,48.301 -107.88,107.881 v 612.64 c 0,59.58 48.3,107.88 107.88,107.88 h 229.68 c 59.58,0 107.88,-48.3 107.88,-107.88 v -612.64 c 0,-59.58 -48.3,-107.881 -107.88,-107.881 z" /><path
         id="path18"
         style="fill:none;stroke:#ffffff;stroke-width:40;stroke-linecap:round;stroke-linejoin:round;stroke-miterlimit:10;stroke-dasharray:none;stroke-opacity:1"
         d="m 1237.31,1657.52 h 139.08" /><path
         id="path20"
         style="fill:none;stroke:#ffffff;stroke-width:40;stroke-linecap:round;stroke-linejoin:round;stroke-miterlimit:10;stroke-dasharray:none;stroke-opacity:1"
         d="m 1237.31,1010.53 h 139.08" /><path
         id="path22"
         style="fill:none;stroke:#ffffff;stroke-width:30;stroke-linecap:round;stroke-linejoin:round;stroke-miterlimit:10;stroke-dasharray:none;stroke-opacity:1"
         d="m 1350.1,1368.11 c 0,25 -20.27,45.26 -45.26,45.26 -25,0 -45.26,-20.26 -45.26,-45.26 0,-13.26 5.74,-25.16 14.82,-33.43 v -81.38 h 58.81 v 79.58 c 10.3,8.29 16.89,20.99 16.89,35.23 z" /><path
         id="path24"
         style="fill:none;stroke:#ffffff;stroke-width:40;stroke-linecap:round;stroke-linejoin:round;stroke-miterlimit:10;stroke-dasharray:none;stroke-opacity:1"
         d="m 459.316,1747.53 h 257.2" /><path
         id="path26"
         style="fill:none;stroke:#ffffff;stroke-width:40;stroke-linecap:round;stroke-linejoin:round;stroke-miterlimit:10;stroke-dasharray:none;stroke-opacity:1"
         d="M 455.867,1426.55 H 719.961" /><path
         id="path28"
         style="fill:none;stroke:#ffffff;stroke-width:40;stroke-linecap:round;stroke-linejoin:round;stroke-miterlimit:10;stroke-dasharray:none;stroke-opacity:1"
         d="M 733.645,1207.94 H 404.492 V 968.191" /><path
         id="path30"
         style="fill:none;stroke:#ffffff;stroke-width:40;stroke-linecap:round;stroke-linejoin:round;stroke-miterlimit:10;stroke-dasharray:none;stroke-opacity:1"
         d="m 455.77,916.719 c 0,-28.379 -22.997,-51.379 -51.375,-51.379 -28.372,0 -51.375,23 -51.375,51.379 0,28.371 23.003,51.371 51.375,51.371 28.378,0 51.375,-23 51.375,-51.371 z" /><path
         id="path32"
         style="fill:none;stroke:#ffffff;stroke-width:40;stroke-linecap:round;stroke-linejoin:round;stroke-miterlimit:10;stroke-dasharray:none;stroke-opacity:1"
         d="m 455.867,1426.55 c 0,-28.38 -23.008,-51.38 -51.375,-51.38 -28.371,0 -51.379,23 -51.379,51.38 0,28.36 23.008,51.36 51.379,51.36 28.367,0 51.375,-23 51.375,-51.36 z" /><path
         id="path34"
         style="fill:none;stroke:#ffffff;stroke-width:40;stroke-linecap:round;stroke-linejoin:round;stroke-miterlimit:10;stroke-dasharray:none;stroke-opacity:1"
         d="m 455.859,1745.39 c 0,-28.37 -23.007,-51.36 -51.379,-51.36 -28.367,0 -51.367,22.99 -51.367,51.36 0,28.37 23,51.37 51.367,51.37 28.372,0 51.379,-23 51.379,-51.37 z" /><path
         id="path36"
         style="fill:none;stroke:#ffffff;stroke-width:40;stroke-linecap:round;stroke-linejoin:round;stroke-miterlimit:10;stroke-dasharray:none;stroke-opacity:1"
         d="M 2135.98,1747.53 H 1878.79" /><path
         id="path38"
         style="fill:none;stroke:#ffffff;stroke-width:40;stroke-linecap:round;stroke-linejoin:round;stroke-miterlimit:10;stroke-dasharray:none;stroke-opacity:1"
         d="m 2139.44,1745.39 c 0,-28.37 23,-51.36 51.37,-51.36 28.37,0 51.37,22.99 51.37,51.36 0,28.37 -23,51.37 -51.37,51.37 -28.37,0 -51.37,-23 -51.37,-51.37 z" /><path
         id="path40"
         style="fill:none;stroke:#ffffff;stroke-width:40;stroke-linecap:round;stroke-linejoin:round;stroke-miterlimit:10;stroke-dasharray:none;stroke-opacity:1"
         d="M 2159.79,1426.55 H 1895.68" /><path
         id="path42"
         style="fill:none;stroke:#ffffff;stroke-width:40;stroke-linecap:round;stroke-linejoin:round;stroke-miterlimit:10;stroke-dasharray:none;stroke-opacity:1"
         d="m 1863.91,1207.94 h 347.24 V 968.191" /><path
         id="path44"
         style="fill:none;stroke:#ffffff;stroke-width:40;stroke-linecap:round;stroke-linejoin:round;stroke-miterlimit:10;stroke-dasharray:none;stroke-opacity:1"
         d="m 2159.87,916.719 c 0,-28.379 23.01,-51.379 51.38,-51.379 28.38,0 51.38,23 51.38,51.379 0,28.371 -23,51.371 -51.38,51.371 -28.37,0 -51.38,-23 -51.38,-51.371 z" /><path
         id="path46"
         style="fill:none;stroke:#ffffff;stroke-width:40;stroke-linecap:round;stroke-linejoin:round;stroke-miterlimit:10;stroke-dasharray:none;stroke-opacity:1"
         d="m 2159.79,1426.55 c 0,-28.38 22.99,-51.38 51.36,-51.38 28.38,0 51.38,23 51.38,51.38 0,28.36 -23,51.36 -51.38,51.36 -28.37,0 -51.36,-23 -51.36,-51.36 z" /></g></g></svg>