<?xml version="1.0" encoding="UTF-8" standalone="no"?>
<svg
   xmlns:dc="http://purl.org/dc/elements/1.1/"
   xmlns:cc="http://creativecommons.org/ns#"
   xmlns:rdf="http://www.w3.org/1999/02/22-rdf-syntax-ns#"
   xmlns:svg="http://www.w3.org/2000/svg"
   xmlns="http://www.w3.org/2000/svg"
   viewBox="0 0 288.79822 192.9588"
   height="192.9588"
   width="288.79822"
   xml:space="preserve"
   id="svg2"
   version="1.1"><metadata
     id="metadata8"><rdf:RDF><cc:Work
         rdf:about=""><dc:format>image/svg+xml</dc:format><dc:type
           rdf:resource="http://purl.org/dc/dcmitype/StillImage" /><dc:title></dc:title></cc:Work></rdf:RDF></metadata><defs
     id="defs6" /><g
     transform="matrix(1.3333333,0,0,-1.3333333,-6.7817732,246.98533)"
     id="g10"><g
       transform="scale(0.1)"
       id="g12"><path
         id="path14"
         style="fill:#ffffff;fill-opacity:1;fill-rule:nonzero;stroke:none"
         d="m 472.648,963.059 c -1.32,0.011 -3.359,0.351 -6.097,1.441 -4.785,1.871 -11.399,6.121 -18.36,12.211 -10.507,9.098 -21.843,22.039 -32.187,35.329 -10.383,13.3 -19.848,26.92 -27.41,37.78 -6.684,9.5 -13.793,23.04 -22.524,35.62 -10.031,14.4 -26.406,23.3 -44.027,23.29 l -1.633,-0.03 0.836,-19.99 -0.543,20 C 245.359,1106.69 177.621,1072.95 129.117,1020.22 80.5625,967.5 50.875,895.621 50.8633,816.809 V 581.16 c 0,-15.172 5.8203,-29.172 15.5039,-39.41 9.6289,-10.262 23.5156,-16.922 38.7888,-16.898 h 575.317 v 40 H 105.156 c -3.668,0.019 -6.9255,1.468 -9.7107,4.359 -2.7265,2.898 -4.582,7.051 -4.582,11.949 v 235.649 c 0.0078,68.711 25.8667,130.902 67.6757,176.312 41.863,45.409 99.305,73.859 163.246,75.599 h 0.082 l 0.211,0.01 -0.265,6.31 0.082,-6.31 h 0.183 l -0.265,6.31 0.082,-6.31 h 0.148 c 4.137,-0.02 8.277,-2.02 11.25,-6.21 6.746,-9.57 13.836,-23.07 22.477,-35.56 11.554,-16.56 28.359,-40.921 47.449,-61.929 9.597,-10.531 19.758,-20.281 30.847,-27.992 5.563,-3.84 11.383,-7.18 17.676,-9.687 6.278,-2.5 13.106,-4.192 20.395,-4.293 z M 660.473,544.852 v -83.34 c 0,-15.172 5.82,-29.16 15.504,-39.41 9.625,-10.25 23.511,-16.922 38.789,-16.903 h 839.084 c 15.28,-0.019 29.16,6.653 38.79,16.903 9.68,10.25 15.5,24.238 15.5,39.41 v 83.34 h -40 v -83.34 c 0,-4.891 -1.86,-9.051 -4.59,-11.942 -2.78,-2.89 -6.04,-4.351 -9.7,-4.371 H 714.766 c -3.664,0.02 -6.922,1.481 -9.707,4.371 -2.731,2.891 -4.586,7.051 -4.586,11.942 v 83.34 h -39.996 z m 927.667,-20 h 574.42 c 15.27,-0.024 29.16,6.648 38.79,16.898 9.68,10.238 15.5,24.238 15.5,39.41 v 235.649 c -0.04,76.679 -28.2,146.972 -74.67,199.371 -46.42,52.4 -111.46,87.08 -184.63,92.01 l -1.34,-19.95 1.55,19.94 c -1.47,0.11 -2.94,0.17 -4.43,0.17 -6.44,0.01 -12.6,-1.16 -18.03,-3.22 -8.19,-3.07 -14.5,-7.92 -19.27,-12.58 -4.79,-4.69 -8.26,-9.29 -10.97,-12.78 -27.41,-35.39 -66.56,-53.26 -106.04,-53.31 -30.38,0.03 -60.83,10.6 -86.47,32.8 -8.82,7.64 -16.73,16.42 -23.53,26.16 -9.99,14.37 -26.33,23.3 -43.96,23.29 l -1.63,-0.03 0.75,-19.99 -0.47,20 c -48.26,-1.14 -95.35,-15.71 -136.47,-42.12 l 21.62,-33.66 c 35.08,22.52 74.97,34.82 115.8,35.79 l 0.17,0.01 h 0.11 l -0.07,1.92 0.02,-1.92 h 0.05 l -0.07,1.92 0.02,-1.92 h 0.17 c 4.09,-0.01 8.2,-2 11.17,-6.19 8.66,-12.41 18.78,-23.67 30.12,-33.49 32.83,-28.49 72.93,-42.6 112.67,-42.569 51.65,-0.039 102.89,23.769 137.7,68.859 3.57,4.7 6.69,8.42 9.25,10.38 1.29,1 2.36,1.59 3.41,1.99 1.07,0.39 2.17,0.65 3.95,0.66 l 1.32,-0.05 0.12,-0.01 0.09,-0.01 c 62.09,-4.21 117.32,-33.49 157.39,-78.639 40.03,-45.153 64.56,-106 64.6,-172.84 V 581.16 c 0,-4.898 -1.85,-9.051 -4.58,-11.949 -2.79,-2.891 -6.04,-4.352 -9.71,-4.359 h -574.42 z m -54.57,537.498 c -54.16,66.71 -131.89,107.65 -215.41,112.99 l -0.18,0.02 -0.24,0.01 -2.53,0.05 c -6.36,0.01 -12.5,-1.09 -17.98,-3.11 -8.26,-3.02 -14.73,-7.89 -19.67,-12.7 -4.97,-4.84 -8.66,-9.67 -11.84,-13.74 l -0.03,-0.04 c -32.8,-42.39 -79.79,-63.88 -127.17,-63.93 -36.45,0.03 -73.01,12.74 -103.73,39.31 -10.57,9.16 -20.04,19.69 -28.2,31.38 l 0.01,-0.03 c -9.983,14.4 -26.327,23.32 -43.94,23.31 l -1.73,-0.03 0.828,-19.99 -0.492,20 c -80.77,-1.98 -157.438,-37.49 -213.379,-98.45 l 0.039,0.04 c -4.727,-5.12 -9.11,-10.31 -13.281,-15.45 l 31.054,-25.21 c 3.836,4.73 7.676,9.26 11.606,13.52 l 0.043,0.04 c 48.922,53.26 115.269,83.8 184.902,85.52 h 0.145 l 0.187,0.01 -0.144,3.51 0.05,-3.51 h 0.094 l -0.144,3.51 0.05,-3.51 h 0.172 c 4.07,-0.01 8.184,-2 11.113,-6.16 l 0.02,-0.03 c 10.023,-14.35 21.707,-27.35 34.797,-38.7 37.91,-32.86 84.12,-49.11 129.93,-49.08 59.55,-0.05 118.63,27.39 158.82,79.47 l -0.03,-0.04 c 4.14,5.4 7.58,9.45 10.22,11.43 1.32,1.02 2.38,1.59 3.46,1.99 1.09,0.39 2.27,0.66 4.22,0.67 l 0.81,-0.02 0.86,19.98 -1.28,-19.95 c 72.06,-4.63 139.47,-39.89 186.93,-98.3 l 31.05,25.22 z m -772.566,3.85 c -38.207,24.63 -81.629,39.09 -126.441,42.01 l -1.305,-19.96 1.879,19.92 c -1.641,0.15 -3.27,0.23 -4.879,0.23 -9.035,0.03 -17.391,-2.5 -24.121,-6.15 -10.164,-5.52 -17.035,-13.04 -22.246,-19.56 -2.594,-3.29 -4.766,-6.38 -6.563,-8.96 -1.773,-2.58 -3.226,-4.68 -4.004,-5.67 -8.375,-10.85 -16.789,-23.14 -25.484,-35.5 -12.988,-18.51 -26.731,-37.169 -40.172,-50.208 -6.688,-6.543 -13.246,-11.614 -19.137,-14.782 -5.937,-3.191 -10.945,-4.511 -15.582,-4.511 h -0.426 l -0.261,-40 h 0.687 c 16.871,0.011 31.864,6.613 44.574,15.5 19.133,13.48 34.801,32.511 49.219,51.793 14.305,19.268 27.188,38.988 38.227,53.238 2.586,3.37 4.636,6.56 6.898,9.72 3.309,4.71 6.934,9.1 10.184,11.67 1.621,1.3 3.082,2.15 4.355,2.66 1.293,0.51 2.383,0.75 3.852,0.76 l 1.117,-0.06 0.293,-0.02 0.285,-0.02 c 37.942,-2.49 74.77,-14.71 107.383,-35.72 l 21.672,33.62" /><path
         id="path16"
         style="fill:#ffffff;fill-opacity:1;fill-rule:nonzero;stroke:none"
         d="m 1543.23,1461.3 v -97.84 c -0.01,-68.92 28.3,-131.49 73.91,-176.57 45.58,-45.12 108.7,-73.04 178.19,-73.03 69.48,-0.01 132.6,27.91 178.18,73.03 45.61,45.08 73.93,107.65 73.91,176.57 v 97.84 h -39.99 v -97.84 c -0.02,-57.88 -23.66,-110.12 -62.05,-148.13 -38.42,-37.98 -91.36,-61.46 -150.05,-61.47 -58.7,0.01 -111.64,23.49 -150.06,61.47 -38.39,38.01 -62.03,90.25 -62.04,148.13 v 97.84 h -40" /><path
         id="path18"
         style="fill:#ffffff;fill-opacity:1;fill-rule:nonzero;stroke:none"
         d="m 704.488,1363.46 h 19.996 v 97.84 c 0.012,68.92 -28.3,131.49 -73.91,176.56 -45.582,45.12 -108.691,73.04 -178.179,73.03 -69.493,0.01 -132.606,-27.91 -178.188,-73.03 -45.609,-45.07 -73.926,-107.63 -73.914,-176.56 v -97.84 c -0.012,-68.92 28.305,-131.49 73.914,-176.57 45.582,-45.12 108.695,-73.04 178.188,-73.03 69.484,-0.01 132.597,27.91 178.179,73.03 45.61,45.08 73.922,107.65 73.91,176.57 h -19.996 -20 c -0.011,-57.88 -23.652,-110.12 -62.047,-148.13 -38.418,-37.98 -91.351,-61.46 -150.046,-61.47 -58.7,0.01 -111.633,23.49 -150.055,61.47 -38.395,38.01 -62.035,90.25 -62.047,148.13 v 97.84 c 0.012,57.88 23.652,110.11 62.047,148.13 38.422,37.98 91.355,61.45 150.055,61.46 58.695,-0.01 111.628,-23.48 150.046,-61.46 38.395,-38.02 62.036,-90.25 62.047,-148.13 v -97.84 h 20" /><path
         id="path20"
         style="fill:#ffffff;fill-opacity:1;fill-rule:nonzero;stroke:none"
         d="m 1401.09,1455.39 h 20 v 112.66 c 0.01,78.52 -32.24,149.77 -84.21,201.14 -51.93,51.41 -123.83,83.21 -203.02,83.2 -79.19,0.01 -151.09,-31.79 -203.032,-83.2 -51.965,-51.37 -84.215,-122.62 -84.203,-201.14 v -112.66 c -0.012,-78.52 32.238,-149.77 84.203,-201.14 51.942,-51.4 123.842,-83.21 203.032,-83.2 79.19,-0.01 151.09,31.8 203.02,83.2 51.97,51.37 84.22,122.62 84.21,201.14 h -20 -20 c -0.01,-67.47 -27.58,-128.39 -72.34,-172.7 -44.78,-44.27 -106.49,-71.63 -174.89,-71.64 -68.4,0.01 -130.12,27.37 -174.899,71.64 -44.75,44.31 -72.324,105.23 -72.336,172.7 v 112.66 c 0.012,67.47 27.586,128.4 72.336,172.7 44.779,44.27 106.499,71.64 174.899,71.65 68.4,-0.01 130.11,-27.38 174.89,-71.65 44.76,-44.3 72.33,-105.23 72.34,-172.7 v -112.66 h 20" /><path
         id="path22"
         style="fill:#ffffff;fill-opacity:1;fill-rule:nonzero;stroke:none"
         d="M 730.359,1052.12 660.66,547.578 700.285,542.109 769.98,1046.65" /><path
         id="path24"
         style="fill:#ffffff;fill-opacity:1;fill-rule:nonzero;stroke:none"
         d="m 1498.25,1046.91 72.14,-505.289 39.6,5.649 -72.14,505.3" /><path
         id="path26"
         style="fill:#ffffff;fill-opacity:1;fill-rule:nonzero;stroke:none"
         d="M 948.18,1170.54 833.027,1064.07 c -4.035,-3.73 -6.351,-8.94 -6.418,-14.44 -0.066,-5.49 2.121,-10.76 6.067,-14.59 0.582,-0.55 25.402,-24.66 62.457,-49.142 18.547,-12.238 40.168,-24.578 63.633,-34.039 23.464,-9.418 48.854,-16.039 75.004,-16.07 0.93,0 1.83,0.012 2.69,0.031 5.79,0.078 11.27,2.692 15,7.121 l 72.38,86.039 55.21,-84.16 c 3.71,-5.64 9.97,-9.031 16.73,-9.031 1.51,0.02 31.41,0.109 71.32,13.77 39.84,13.621 90.01,41.261 129.46,95.981 4.8,6.66 5.03,15.66 0.57,22.56 l -63.46,98.14 c -5.99,9.28 -18.37,11.94 -27.65,5.94 -9.28,-6 -11.93,-18.38 -5.93,-27.66 l 63.45,-98.14 16.8,10.86 -16.22,11.7 c -33.72,-46.7 -75.83,-69.78 -109.99,-81.542 -17.04,-5.839 -32,-8.757 -42.52,-10.199 -5.26,-0.719 -9.41,-1.07 -12.15,-1.25 -1.37,-0.078 -2.38,-0.117 -3.01,-0.14 l -0.65,-0.02 h -0.09 l 0.06,-8.809 v 8.809 h -0.06 l 0.06,-8.809 v 8.809 l 0.01,-20 16.72,10.973 -69.94,106.628 c -3.49,5.31 -9.2,8.61 -15.54,8.99 -6.34,0.38 -12.4,-2.23 -16.49,-7.09 l -89.68,-106.599 15.31,-12.882 -0.31,20 -2.08,-0.02 c -19.23,-0.019 -39.93,5.063 -60.071,13.18 -30.219,12.131 -58.926,30.971 -79.734,46.751 -10.414,7.89 -18.883,14.99 -24.688,20.08 -2.902,2.54 -5.14,4.58 -6.625,5.95 l -1.656,1.55 -0.383,0.36 -0.078,0.08 -13.93,-14.35 13.579,-14.69 115.152,106.47 c 8.105,7.5 8.605,20.15 1.105,28.26 -7.5,8.11 -20.152,8.61 -28.261,1.11" /><path
         id="path28"
         style="fill:#ffffff;fill-opacity:1;fill-rule:nonzero;stroke:none"
         d="M 299.453,1098.93 210.766,987.672 c -6.133,-7.692 -5.75,-18.731 0.906,-25.981 0.574,-0.613 24.324,-26.511 60.367,-52.851 18.047,-13.168 39.18,-26.469 62.363,-36.68 23.172,-10.18 48.508,-17.359 74.918,-17.39 l 2.508,0.019 c 5.57,0.082 10.93,2.531 14.633,6.691 l 45.844,51.43 46.14,-52.351 c 4.379,-4.969 10.969,-7.45 17.539,-6.618 0.957,0.137 35.868,4.59 78.641,20.329 21.391,7.89 44.777,18.609 66.891,33.339 22.089,14.743 43,33.551 58.695,57.743 4.469,6.886 4.289,15.738 -0.453,22.437 l -78.016,110.231 c -6.379,9.02 -18.859,11.15 -27.875,4.77 -9.015,-6.38 -11.152,-18.86 -4.773,-27.88 l 78.011,-110.23 16.329,11.55 -16.782,10.879 c -11.949,-18.437 -28.605,-33.738 -47.324,-46.211 -28.027,-18.726 -60.5,-30.82 -85.785,-37.937 -12.641,-3.57 -23.477,-5.93 -31.059,-7.391 -3.793,-0.718 -6.773,-1.218 -8.761,-1.531 -0.993,-0.16 -1.739,-0.269 -2.211,-0.34 l -0.508,-0.07 -0.082,-0.008 2.531,-19.84 15.004,13.231 -61.062,69.269 c -3.778,4.289 -9.231,6.758 -14.946,6.778 -5.719,0.019 -11.183,-2.418 -14.988,-6.688 l -60.859,-68.269 14.929,-13.313 -0.297,20 -1.914,-0.019 c -18.965,-0.032 -39.179,5.339 -58.808,14 -29.449,12.921 -57.239,33.058 -77.282,49.96 -10.039,8.45 -18.167,16.059 -23.734,21.5 -2.781,2.731 -4.922,4.911 -6.344,6.379 l -1.574,1.653 -0.367,0.386 -0.07,0.082 -14.735,-13.519 15.641,-12.473 L 330.73,1074 c 6.883,8.64 5.465,21.22 -3.171,28.11 -8.637,6.88 -21.219,5.46 -28.106,-3.18" /><path
         id="path30"
         style="fill:#ffffff;fill-opacity:1;fill-rule:nonzero;stroke:none"
         d="m 1548.94,903.762 c 12.55,14.679 23.21,33.386 30.61,56.66 7.42,23.277 11.64,51.108 11.64,84.378 0,5.51 -0.12,11.16 -0.35,16.96 l -0.01,0.13 v 0.18 c 0,1.85 0.72,3.44 1.88,4.64 1.2,1.18 2.61,1.83 4.41,1.85 h 60.78 l 125.31,-171.63 c 2.81,-3.852 7.2,-6.11 11.97,-6.149 4.76,-0.051 9.2,2.117 12.08,5.91 l 130.82,171.869 h 52.13 c 7.48,-0.01 13.34,-6.07 13.36,-13.19 l -0.07,-1.38 0.01,0.08 c -0.83,-8.66 -1.43,-18.64 -1.43,-29.48 0,-17.18 1.49,-36.512 6.09,-56.129 6.87,-29.332 20.96,-59.723 47.91,-82.66 26.91,-22.992 65.93,-37.461 119.23,-37.379 2.29,0 4.62,0.019 6.98,0.066 l -0.32,15 h -15 V 563.281 h -266.7 v -15 l 0.65,14.989 -0.17,-3.809 0.19,3.809 h -0.02 l -0.17,-3.809 0.19,3.809 c -0.39,-0.02 -21.27,1.21 -42.21,9.5 -10.48,4.109 -20.87,9.921 -29,17.66 -8.14,7.8 -14.19,17.211 -16.96,30.148 -1.49,7.012 -7.73,12 -14.89,11.902 -7.15,-0.101 -13.26,-5.261 -14.55,-12.3 l 6.67,-1.219 -6.64,1.359 -0.03,-0.14 6.67,-1.219 -6.64,1.359 c -0.01,-0.148 -2.74,-12.84 -14.11,-25.879 -11.47,-12.992 -31.18,-27.25 -69.33,-31.23 -27.34,-2.77 -68.91,-3.762 -111.79,-3.762 -8.28,-0.008 -15,-6.719 -14.99,-15.008 0,-8.281 6.72,-15 15,-15 43.4,0.028 85.35,0.957 114.79,3.918 23.11,2.332 41.82,8.262 56.71,16.121 22.38,11.77 35.84,27.782 43.4,40.848 7.6,13.094 9.57,23.231 9.81,24.461 l -14.76,2.691 -14.68,-3.101 c 4.08,-19.52 14.12,-35 26.23,-46.238 18.24,-16.93 40.57,-25.2 58.25,-29.731 17.72,-4.48 31.03,-5.07 31.72,-5.109 l 0.66,-0.012 h 281.7 c 4,0 7.77,1.551 10.6,4.391 2.84,2.832 4.4,6.601 4.4,10.601 v 315.207 c 0,4.012 -1.65,7.922 -4.51,10.723 -2.87,2.801 -6.81,4.359 -10.82,4.277 -2.15,-0.047 -4.25,-0.066 -6.33,-0.066 -32.07,0 -56.55,5.668 -75.38,14.566 -28.14,13.403 -44.46,33.981 -54.64,57.793 -10.08,23.75 -13.24,50.659 -13.22,73.809 0,9.72 0.55,18.77 1.3,26.62 l 0.01,0.08 c 0.12,1.33 0.19,2.69 0.19,4.08 -0.02,23.74 -19.29,43.17 -43.36,43.19 h -59.56 c -4.66,0 -9.12,-2.21 -11.94,-5.92 L 1795.58,930.871 1677.64,1092.4 c -2.84,3.89 -7.31,6.16 -12.12,6.16 h -68.4 c -10.07,0.01 -19.31,-4.19 -25.79,-10.81 -6.51,-6.6 -10.5,-15.76 -10.5,-25.68 l 0.04,-1.63 -0.01,0.13 c 0.22,-5.43 0.33,-10.68 0.33,-15.77 0,-30.74 -3.91,-55.46 -10.22,-75.269 -6.33,-19.832 -15,-34.761 -24.84,-46.293 -5.39,-6.297 -4.64,-15.769 1.66,-21.148 6.3,-5.379 15.77,-4.629 21.15,1.66" /><path
         id="path32"
         style="fill:#ffffff;fill-opacity:1;fill-rule:nonzero;stroke:none"
         d="M 1780.33,905.77 V 617.48 c 0,-8.281 6.71,-15 15,-15 8.28,0 15,6.719 15,15 v 288.29 c 0,8.289 -6.72,15 -15,15 -8.29,0 -15,-6.711 -15,-15" /><path
         id="path34"
         style="fill:#ffffff;fill-opacity:1;fill-rule:nonzero;stroke:none"
         d="m 1555.06,775.461 h 618.62 c 8.28,0 15,6.719 15,15 0,8.289 -6.72,15 -15,15 h -618.62 c -8.28,0 -15,-6.711 -15,-15 0,-8.281 6.72,-15 15,-15" /><path
         id="path36"
         style="fill:#ffffff;fill-opacity:1;fill-rule:nonzero;stroke:none"
         d="m 1567.08,691.371 h 614.89 c 8.28,0 15,6.719 15,15 0,8.277 -6.72,15 -15,15 h -614.89 c -8.29,0 -15,-6.723 -15,-15 0,-8.281 6.71,-15 15,-15" /><path
         id="path38"
         style="fill:#ffffff;fill-opacity:1;fill-rule:nonzero;stroke:none"
         d="m 1579.08,607.289 h 594.6 c 8.28,0 15,6.711 15,15 0,8.281 -6.72,15 -15,15 h -594.6 c -8.29,0 -15,-6.719 -15,-15 0,-8.289 6.71,-15 15,-15" /><path
         id="path40"
         style="fill:#ffffff;fill-opacity:1;fill-rule:nonzero;stroke:none"
         d="m 1856.7,1767.28 c 40.66,-14.73 76.67,-45.36 102.56,-86.88 25.88,-41.49 41.48,-93.67 41.48,-150.51 0,-11.04 8.95,-20 20,-20 11.04,0 20,8.96 20,20 -0.01,64.15 -17.55,123.56 -47.54,171.68 -29.98,48.07 -72.59,85.05 -122.86,103.31 -10.39,3.76 -21.86,-1.6 -25.62,-11.99 -3.77,-10.38 1.6,-21.85 11.98,-25.61" /><path
         id="path42"
         style="fill:#ffffff;fill-opacity:1;fill-rule:nonzero;stroke:none"
         d="m 1599.67,1529.89 c 0.01,56 13.36,104.63 36.12,143.81 22.79,39.2 54.94,69.02 93.38,87.54 9.95,4.79 14.13,16.74 9.34,26.69 -4.79,9.96 -16.74,14.14 -26.69,9.35 -45.8,-22.03 -84.05,-57.71 -110.62,-103.48 -26.59,-45.78 -41.54,-101.55 -41.53,-163.91 0,-11.04 8.96,-20 20,-20 11.05,0 20,8.96 20,20" /><path
         id="path44"
         style="fill:#ffffff;fill-opacity:1;fill-rule:nonzero;stroke:none"
         d="m 1749.94,1631.38 v 155 c 0.02,7.25 2.88,13.63 7.62,18.4 4.77,4.74 11.15,7.61 18.39,7.62 h 41.67 c 7.25,-0.01 13.62,-2.88 18.39,-7.62 4.74,-4.77 7.61,-11.15 7.62,-18.4 v -155 c 0,-11.04 8.95,-20 20,-20 11.04,0 20,8.96 20,20 v 155 c -0.02,36.46 -29.54,66 -66.01,66.01 h -41.67 c -36.47,-0.01 -65.99,-29.55 -66,-66.01 v -155 c 0,-11.04 8.95,-20 20,-20 11.04,0 20,8.96 20,20" /><path
         id="path46"
         style="fill:#ffffff;fill-opacity:1;fill-rule:nonzero;stroke:none"
         d="m 2023.02,1449.88 v 20 h -455.39 c -3.87,0 -6.99,3.12 -6.99,6.99 v 26.03 c 0,3.86 3.13,6.99 6.99,7 h 455.39 c 3.84,-0.01 6.99,-3.15 6.99,-7 v -26.03 c 0,-3.86 -3.14,-6.99 -6.99,-6.99 v -20 -20 c 25.95,0.01 46.98,21.02 46.99,46.99 v 26.03 c -0.01,25.97 -21.03,46.98 -46.99,46.99 h -455.39 c -25.97,-0.01 -46.98,-21.03 -46.99,-46.99 v -26.03 c 0.01,-25.96 21.03,-46.99 46.99,-46.99 h 455.39 v 20" /><path
         id="path48"
         style="fill:#ffffff;fill-opacity:1;fill-rule:nonzero;stroke:none"
         d="m 1656.44,1751.21 v -87.63 c 0,-11.05 8.95,-20 20,-20 11.05,0 20,8.95 20,20 v 87.63 c 0,11.05 -8.95,20 -20,20 -11.05,0 -20,-8.95 -20,-20" /><path
         id="path50"
         style="fill:#ffffff;fill-opacity:1;fill-rule:nonzero;stroke:none"
         d="m 1900.15,1754.23 v -94.56 c 0,-11.04 8.95,-20 20,-20 11.05,0 20,8.96 20,20 v 94.56 c 0,11.05 -8.95,20 -20,20 -11.05,0 -20,-8.95 -20,-20" /><path
         id="path52"
         style="fill:#ffffff;fill-opacity:1;fill-rule:nonzero;stroke:none"
         d="m 1107.3,1040.38 -15.3,12.88 -50.82,-60.408 c -7.82,-9.262 -11.7,-20.75 -11.67,-31.973 -0.04,-15.059 6.94,-30.188 20.09,-39.938 l 36.97,-27.421 c 10.72,-7.961 23.45,-11.918 36.03,-11.899 15.04,-0.019 30.1,5.629 41.68,16.629 l 25.09,23.859 c 10.91,10.371 16.61,24.512 16.59,38.692 0.01,10.09 -2.88,20.32 -8.73,29.238 l -38.89,59.271 c -3.97,6.08 -9.4,10.86 -15.42,14 -6.02,3.15 -12.62,4.71 -19.24,4.71 -11.51,0.06 -23.48,-4.95 -31.7,-14.78 l 0.02,0.02 15.3,-12.88 15.32,-12.85 1.06,0.5 0.71,-0.17 0.51,-0.49 38.88,-59.268 c 1.48,-2.27 2.18,-4.762 2.19,-7.301 -0.02,-3.602 -1.41,-7.082 -4.16,-9.699 l -25.08,-23.852 c -3.96,-3.75 -8.99,-5.621 -14.13,-5.641 -4.31,0.02 -8.52,1.321 -12.19,4.032 l -36.98,27.429 c -2.62,1.961 -3.89,4.758 -3.93,7.809 0.03,2.25 0.71,4.32 2.28,6.211 l 50.83,60.42 0.01,0.02 -15.32,12.85" /><path
         id="path54"
         style="fill:#ffffff;fill-opacity:1;fill-rule:nonzero;stroke:none"
         d="m 1041.6,938.809 -20.25,-223.2 v 0.032 c -0.17,-1.871 -0.27,-3.782 -0.27,-5.731 0,-5.308 0.67,-10.629 2.03,-15.82 l 19.35,5.051 -19.72,-3.36 41.41,-242.582 0.22,-0.84 c 3.65,-14.07 12.01,-25.89 22.87,-34.109 10.86,-8.238 24.36,-13.039 38.67,-13.051 16.25,-0.019 31.28,6.289 42.32,16.621 11.07,10.309 18.35,24.7 19.78,40.692 l -19.92,1.789 19.67,-3.59 42.47,232.687 0.08,0.903 c 0.29,3.14 0.42,6.269 0.42,9.379 0,5.34 -0.41,10.672 -1.22,15.949 l -34.16,220.043 -39.52,-6.133 34.15,-220.027 c 0.5,-3.25 0.75,-6.543 0.75,-9.832 0,-1.961 -0.08,-3.891 -0.26,-5.801 l 19.93,-1.789 -19.68,3.59 -42.47,-232.692 -0.08,-0.898 c -0.56,-6.149 -3.26,-11.301 -7.22,-15.012 -4,-3.687 -9.06,-5.859 -15.04,-5.879 -5.25,-0.008 -10.39,1.801 -14.5,4.922 -4.12,3.129 -7.06,7.391 -8.32,12.277 l -19.36,-5.019 19.71,3.359 -41.41,242.621 -0.22,0.832 c -0.48,1.868 -0.73,3.789 -0.73,5.719 l 0.1,2.051 v 0.027 l 20.26,223.211 -39.84,3.61" /><path
         id="path56"
         style="fill:#ffffff;fill-opacity:1;fill-rule:nonzero;stroke:none"
         d="M 70.8633,770.531 H 714.414 c 11.047,0 20,8.957 20,20 0,11.047 -8.953,20 -20,20 H 70.8633 c -11.0469,0 -20,-8.953 -20,-20 0,-11.043 8.9531,-20 20,-20" /><path
         id="path58"
         style="fill:#ffffff;fill-opacity:1;fill-rule:nonzero;stroke:none"
         d="m 1588.14,524.852 h 574.42 c 15.27,-0.024 29.16,6.648 38.79,16.898 9.68,10.238 15.5,24.238 15.5,39.41 v 235.649 c -0.04,76.679 -28.2,146.972 -74.67,199.371 -46.42,52.4 -111.46,87.08 -184.63,92.01 l -1.34,-19.95 1.55,19.94 c -1.47,0.11 -2.94,0.17 -4.43,0.17 -6.44,0.01 -12.6,-1.16 -18.03,-3.22 -8.19,-3.07 -14.5,-7.92 -19.27,-12.58 -4.79,-4.69 -8.26,-9.29 -10.97,-12.78 -27.41,-35.39 -66.56,-53.26 -106.04,-53.31 -30.38,0.03 -60.83,10.6 -86.47,32.8 -8.82,7.64 -16.73,16.42 -23.53,26.16 -9.99,14.37 -26.33,23.3 -43.96,23.29 l -1.63,-0.03 0.75,-19.99 -0.47,20 c -48.26,-1.14 -95.35,-15.71 -136.47,-42.12 l 21.62,-33.66 c 35.08,22.52 74.97,34.82 115.8,35.79 l 0.17,0.01 h 0.11 l -0.07,1.92 0.02,-1.92 h 0.05 l -0.07,1.92 0.02,-1.92 h 0.17 c 4.09,-0.01 8.2,-2 11.17,-6.19 8.66,-12.41 18.78,-23.67 30.12,-33.49 32.83,-28.49 72.93,-42.6 112.67,-42.569 51.65,-0.039 102.89,23.769 137.7,68.859 3.57,4.7 6.69,8.42 9.25,10.38 1.29,1 2.36,1.59 3.41,1.99 1.07,0.39 2.17,0.65 3.95,0.66 l 1.32,-0.05 0.12,-0.01 0.09,-0.01 c 62.09,-4.21 117.32,-33.49 157.39,-78.639 40.03,-45.153 64.56,-106 64.6,-172.84 V 581.16 c 0,-4.898 -1.85,-9.051 -4.58,-11.949 -2.79,-2.891 -6.04,-4.352 -9.71,-4.359 h -574.42 v -40" /><path
         id="path60"
         style="fill:#ffffff;fill-opacity:1;fill-rule:nonzero;stroke:none"
         d="m 1533.57,1062.35 c -54.16,66.71 -131.89,107.65 -215.41,112.99 l -0.18,0.02 -0.24,0.01 -2.53,0.05 c -6.36,0.01 -12.5,-1.09 -17.98,-3.11 -8.26,-3.02 -14.73,-7.89 -19.67,-12.7 -4.97,-4.84 -8.66,-9.67 -11.84,-13.74 l -0.03,-0.04 c -32.8,-42.39 -79.79,-63.88 -127.17,-63.93 -36.45,0.03 -73.01,12.74 -103.73,39.31 -10.57,9.16 -20.04,19.69 -28.2,31.38 l 0.01,-0.03 c -9.983,14.4 -26.327,23.32 -43.94,23.31 l -1.73,-0.03 0.828,-19.99 -0.492,20 c -80.77,-1.98 -157.438,-37.49 -213.379,-98.45 l 0.039,0.04 c -4.727,-5.12 -9.11,-10.31 -13.281,-15.45 l 31.054,-25.21 c 3.836,4.73 7.676,9.26 11.606,13.52 l 0.043,0.04 c 48.922,53.26 115.269,83.8 184.902,85.52 h 0.145 l 0.187,0.01 -0.144,3.51 0.05,-3.51 h 0.094 l -0.144,3.51 0.05,-3.51 h 0.172 c 4.07,-0.01 8.184,-2 11.113,-6.16 l 0.02,-0.03 c 10.023,-14.35 21.707,-27.35 34.797,-38.7 37.91,-32.86 84.12,-49.11 129.93,-49.08 59.55,-0.05 118.63,27.39 158.82,79.47 l -0.03,-0.04 c 4.14,5.4 7.58,9.45 10.22,11.43 1.32,1.02 2.38,1.59 3.46,1.99 1.09,0.39 2.27,0.66 4.22,0.67 l 0.81,-0.02 0.86,19.98 -1.28,-19.95 c 72.06,-4.63 139.47,-39.89 186.93,-98.3 l 31.05,25.22" /><path
         id="path62"
         style="fill:#ffffff;fill-opacity:1;fill-rule:nonzero;stroke:none"
         d="m 660.473,461.512 h 40 v 83.3398 h -40 z" /></g></g></svg>