<?xml version="1.0" encoding="UTF-8" standalone="no"?>
<svg
   xmlns:dc="http://purl.org/dc/elements/1.1/"
   xmlns:cc="http://creativecommons.org/ns#"
   xmlns:rdf="http://www.w3.org/1999/02/22-rdf-syntax-ns#"
   xmlns:svg="http://www.w3.org/2000/svg"
   xmlns="http://www.w3.org/2000/svg"
   viewBox="0 0 281.56846 118.89337"
   height="118.89336"
   width="281.56845"
   xml:space="preserve"
   id="svg2"
   version="1.1"><metadata
     id="metadata8"><rdf:RDF><cc:Work
         rdf:about=""><dc:format>image/svg+xml</dc:format><dc:type
           rdf:resource="http://purl.org/dc/dcmitype/StillImage" /><dc:title></dc:title></cc:Work></rdf:RDF></metadata><defs
     id="defs6" /><g
     transform="matrix(1.3333333,0,0,-1.3333333,-5.1997103,154.19025)"
     id="g10"><path
       d="m 145.84,102.076 c -3.434,1.017 -22.164,-4.5655 -19.047,-0.885 3.118,3.68 7.798,5.57 -1.953,3.949 -9.751,-1.62 -15.066,1.306 -15.066,1.306 -15.0107,4.863 3.264,8.027 3.264,8.027 24.078,2.832 45.893,-14.392 48.725,-38.4703 C 164.594,51.9238 147.37,30.109 123.291,27.277 99.2125,24.4461 77.398,41.6711 74.5664,65.7488 c -2.1234,18.0586 7.0344,34.8452 21.9039,43.3032 0,0 11.2307,16.628 -26.4,-5.066 C 50.2641,92.5684 27.3004,83.9891 4.40664,77.5508"
       style="fill:none;stroke:#ffffff;stroke-width:1;stroke-linecap:round;stroke-linejoin:round;stroke-miterlimit:10;stroke-dasharray:none;stroke-opacity:1"
       id="path14" /><path
       d="m 145.84,102.076 c 34.725,-26.283 7.701,-44.6182 7.701,-44.6182 -1.485,1.6086 -0.289,5.5899 -0.752,6.3957 -0.463,0.8055 -0.585,3.9539 -4.199,4.3887 -3.614,0.4355 -6.922,5.575 -7.699,6.959 -0.777,1.3828 -2.468,0.9551 -2.468,0.9551 -5.351,-1.1086 -15.004,3.0136 -11.364,-1.7668 3.638,-4.7793 -10.585,-3.0137 -3.163,-0.9415 5.444,1.5208 3.657,2.9426 6.78,-0.1855 3.13,-3.1367 5.77,-2.1895 5.647,-4.8672 -0.802,-17.539 -12.038,-4.7117 -12.227,-27.2883 -0.055,-6.4711 -3.617,-0.2629 -3.617,-0.2629 -6.688,6.5512 -7.367,12.3747 -7.367,12.3747 0,0 -1.389,2.8066 -2.499,3.9734 -4.065,4.2726 -5.204,12.1348 -5.039,14.7578 0.165,2.6242 -8.5955,1.3508 -14.8998,0.6094 -6.3035,-0.741 -21.4101,-1.6914 -14.2539,11.9316 0,0 22.6246,27.773 88.5387,16.451 12.885,-2.2127 29.939,-3.7342 49.61,-4.4205"
       style="fill:none;stroke:#ffffff;stroke-width:1;stroke-linecap:round;stroke-linejoin:round;stroke-miterlimit:10;stroke-dasharray:none;stroke-opacity:1"
       id="path16" /><path
       d="m 127.298,40.7551 c 0,0 0.352,-2.3102 -0.316,-3.5231 -0.668,-1.214 0.969,-2.723 1.741,-1.0109 0.771,1.7109 -1.425,4.534 -1.425,4.534 z"
       style="fill:none;stroke:#ffffff;stroke-width:1;stroke-linecap:round;stroke-linejoin:round;stroke-miterlimit:10;stroke-dasharray:none;stroke-opacity:1"
       id="path18" /></g></svg>