<svg xmlns="http://www.w3.org/2000/svg" xmlns:xlink="http://www.w3.org/1999/xlink" version="1.1" x="0px" y="0px" viewBox="0 0 500 625" enable-background="new 0 0 500 500" xml:space="preserve"><g><g><g><path d="M338,280.5c18.7-18.7,37.4-37.4,56.1-56.1c10.3-10.3,20.5-20.4,26.5-33.9c11.5-25.9,10.2-56.7-5.7-80.6     c-15.6-23.5-42-38.2-70.3-38.2c-23,0-44.4,9.7-60.5,25.8c-20,20-40,40-60,60c-13,13-23.5,27.8-27.2,46.2     c-5.6,27.7,2.5,56.8,22.6,76.9c5.5,5.5,11.9,10.3,18.7,14.1c7.1,4,16.4,1.7,20.5-5.4c4.1-6.9,1.7-16.5-5.4-20.5     c-10.4-5.9-16.9-12.5-22.2-22.5c-0.7-1.2-1.3-2.5-1.9-3.8c-1.9-4,0.7,2.6-0.6-1.6c-0.8-2.6-1.7-5.2-2.4-7.9     c-0.3-1.3-0.5-2.7-0.8-4c-0.9-4.3,0,2.9-0.2-1.5c-0.2-3.2-0.3-6.4-0.2-9.6c0.1-1.4,0.2-2.7,0.3-4.1c-0.3,3.4,0.2-1,0.3-1.4     c0.5-2.7,1.2-5.4,2-8c0.4-1.3,0.9-2.6,1.4-3.9c-1.1,2.9,0.6-1.3,0.7-1.5c1.2-2.5,2.6-5,4.2-7.4c0.8-1.2,1.6-2.4,2.4-3.5     c-1.8,2.3,1.2-1.4,1.3-1.5c1-1.1,2-2.2,3.1-3.3c0.8-0.8,1.5-1.5,2.3-2.3c19.3-19.3,38.6-38.6,57.9-57.9c1.8-1.8,3.7-3.7,5.5-5.5     c1.7-1.7,3.5-3.4,5.4-4.9c-2.3,1.8,1.5-1,1.6-1.1c1.2-0.8,2.4-1.6,3.6-2.3c2.4-1.4,4.9-2.8,7.5-3.8c-2.9,1.2,1.3-0.4,1.6-0.5     c1.7-0.6,3.5-1.1,5.3-1.6c1.3-0.3,2.7-0.6,4-0.9c0.4-0.1,4.9-0.6,1.4-0.3c2.7-0.3,5.5-0.4,8.2-0.4c1.4,0,2.7,0.1,4.1,0.2     c0.4,0,4.9,0.6,1.5,0.1c3.2,0.5,6.3,1.2,9.4,2.1c1.3,0.4,2.6,0.9,3.9,1.3c4.2,1.3-2.4-1.3,1.6,0.6c2.5,1.2,5,2.5,7.4,4     c1.2,0.8,2.4,1.6,3.6,2.4c2.4,1.6,0.9,0.7,0.4,0.3c2.3,1.8,4.4,3.8,6.5,5.9c7.1,7.4,11.5,15.8,13.8,26.6c0.3,1.3,0.5,2.7,0.7,4.1     c-0.5-3.4,0,1.1,0.1,1.5c0.2,2.7,0.2,5.5,0.1,8.2c-0.1,1.4-0.2,2.7-0.3,4.1c0.3-3.4-0.2,1-0.3,1.4c-0.6,3.2-1.4,6.3-2.5,9.3     c-0.1,0.3-1.7,4.5-0.5,1.6c-0.5,1.3-1.2,2.6-1.8,3.8c-1.3,2.5-2.7,5-4.3,7.3c0.2-0.3-2.6,3.5-1.4,2c1.2-1.6-1.8,2.1-1.6,1.8     c-1,1.2-2.1,2.3-3.2,3.4c-2.4,2.4-4.8,4.8-7.1,7.1c-19.5,19.5-39,39-58.5,58.5c-5.7,5.7-5.7,15.5,0,21.2     C322.5,286.3,332.2,286.3,338,280.5L338,280.5z"/></g></g><g><g><path d="M162,219.5c-18.8,18.8-37.5,37.5-56.3,56.3c-10.6,10.6-20.8,20.9-26.8,35c-11.1,25.7-9.3,56.5,6.7,79.9     c15.9,23.5,42.7,38.2,71.3,37.6c22.7-0.4,43.4-10.1,59.4-26c20.1-20.1,40.2-40.2,60.3-60.3c13.4-13.4,24.1-29.2,27.1-48.3     c4.5-27.8-4.1-56.5-25-75.9c-6-5.6-12.7-10.3-20.1-14c-7.3-3.6-16.2-1.9-20.5,5.4c-3.9,6.6-1.9,16.9,5.4,20.5     c6,3,10.5,5.9,14.6,9.8c1.8,1.7,3.5,3.6,5.2,5.5c3,3.3-1.3-2.2,1.2,1.5c1.1,1.6,2.1,3.1,3.1,4.8c1.4,2.4,2.8,4.9,3.8,7.5     c-1.2-2.9,0.4,1.3,0.5,1.6c0.4,1.3,0.9,2.6,1.2,4c0.7,2.7,1.3,5.4,1.7,8.1c-0.5-3.4,0,1.1,0.1,1.5c0.1,1.8,0.2,3.7,0.2,5.5     c0,1.4-0.1,2.7-0.2,4.1c0,0.4-0.6,4.9-0.1,1.5c-0.4,2.7-1,5.4-1.7,8.1c-0.4,1.3-0.8,2.7-1.2,4c-0.1,0.3-1.7,4.5-0.5,1.6     c-1.3,3-2.8,5.9-4.6,8.7c-2.8,4.5-5.2,7-9.6,11.5c-19.3,19.3-38.5,38.5-57.8,57.8c-2,2-3.9,4-5.9,5.9c-1.4,1.4-2.9,2.7-4.4,4     c-3.3,3,2.2-1.3-1.5,1.2c-1.2,0.8-2.3,1.6-3.6,2.4c-2.4,1.5-4.9,2.8-7.4,4c-4,1.9,2.6-0.7-1.6,0.6c-1.8,0.6-3.5,1.2-5.3,1.7     c-9.9,2.7-18.8,2.7-28.7,0c-1.3-0.4-2.7-0.8-4-1.2c-0.3-0.1-4.5-1.7-1.6-0.5c-2.6-1.1-5.1-2.4-7.5-3.8c-1.2-0.7-2.4-1.5-3.6-2.3     c-0.1-0.1-3.8-2.9-1.6-1.1c-2.3-1.8-4.4-3.8-6.5-5.9c-6.6-6.9-11.1-15.4-13.5-25.3c-0.3-1.3-0.5-2.7-0.8-4     c-0.9-4.3,0,2.9-0.2-1.5c-0.1-2.7-0.3-5.5-0.2-8.2c0-1.4,0.2-2.7,0.2-4.1c0.2-4.4-0.7,2.8,0.2-1.5c0.6-3.2,1.3-6.3,2.3-9.4     c2.2-6.9,7.3-15.2,13.2-21.2c2.4-2.4,4.8-4.8,7.1-7.1c19.5-19.5,39-39,58.5-58.5c5.7-5.7,5.7-15.5,0-21.2     C177.5,213.7,167.8,213.7,162,219.5L162,219.5z"/></g></g></g><text x="0" y="515" fill="#000000" font-size="5px" font-weight="bold" font-family="'Helvetica Neue', Helvetica, Arial-Unicode, Arial, Sans-serif">Created by Neha Tyagi</text><text x="0" y="520" fill="#000000" font-size="5px" font-weight="bold" font-family="'Helvetica Neue', Helvetica, Arial-Unicode, Arial, Sans-serif">from the Noun Project</text></svg>