<?xml version="1.0" encoding="UTF-8" standalone="no"?>
<svg
   xmlns:dc="http://purl.org/dc/elements/1.1/"
   xmlns:cc="http://creativecommons.org/ns#"
   xmlns:rdf="http://www.w3.org/1999/02/22-rdf-syntax-ns#"
   xmlns:svg="http://www.w3.org/2000/svg"
   xmlns="http://www.w3.org/2000/svg"
   height="356.61771"
   width="356.3562"
   id="svg20"
   xml:space="preserve"
   enable-background="new 0 0 500 500"
   viewBox="0 0 356.3562 356.61771"
   y="0px"
   x="0px"
   version="1.1"><metadata
     id="metadata26"><rdf:RDF><cc:Work
         rdf:about=""><dc:format>image/svg+xml</dc:format><dc:type
           rdf:resource="http://purl.org/dc/dcmitype/StillImage" /><dc:title></dc:title></cc:Work></rdf:RDF></metadata><defs
     id="defs24" /><g
     style="fill:#ffffff"
     transform="translate(-71.836927,-71.7)"
     id="g14"><g
       style="fill:#ffffff"
       id="g6"><g
         style="fill:#ffffff"
         id="g4"><path
           style="fill:#ffffff"
           id="path2"
           d="m 338,280.5 c 18.7,-18.7 37.4,-37.4 56.1,-56.1 10.3,-10.3 20.5,-20.4 26.5,-33.9 11.5,-25.9 10.2,-56.7 -5.7,-80.6 -15.6,-23.5 -42,-38.2 -70.3,-38.2 -23,0 -44.4,9.7 -60.5,25.8 -20,20 -40,40 -60,60 -13,13 -23.5,27.8 -27.2,46.2 -5.6,27.7 2.5,56.8 22.6,76.9 5.5,5.5 11.9,10.3 18.7,14.1 7.1,4 16.4,1.7 20.5,-5.4 4.1,-6.9 1.7,-16.5 -5.4,-20.5 -10.4,-5.9 -16.9,-12.5 -22.2,-22.5 -0.7,-1.2 -1.3,-2.5 -1.9,-3.8 -1.9,-4 0.7,2.6 -0.6,-1.6 -0.8,-2.6 -1.7,-5.2 -2.4,-7.9 -0.3,-1.3 -0.5,-2.7 -0.8,-4 -0.9,-4.3 0,2.9 -0.2,-1.5 -0.2,-3.2 -0.3,-6.4 -0.2,-9.6 0.1,-1.4 0.2,-2.7 0.3,-4.1 -0.3,3.4 0.2,-1 0.3,-1.4 0.5,-2.7 1.2,-5.4 2,-8 0.4,-1.3 0.9,-2.6 1.4,-3.9 -1.1,2.9 0.6,-1.3 0.7,-1.5 1.2,-2.5 2.6,-5 4.2,-7.4 0.8,-1.2 1.6,-2.4 2.4,-3.5 -1.8,2.3 1.2,-1.4 1.3,-1.5 1,-1.1 2,-2.2 3.1,-3.3 0.8,-0.8 1.5,-1.5 2.3,-2.3 19.3,-19.3 38.6,-38.6 57.9,-57.9 1.8,-1.8 3.7,-3.7 5.5,-5.5 1.7,-1.7 3.5,-3.4 5.4,-4.9 -2.3,1.8 1.5,-1 1.6,-1.1 1.2,-0.8 2.4,-1.6 3.6,-2.3 2.4,-1.4 4.9,-2.8 7.5,-3.8 -2.9,1.2 1.3,-0.4 1.6,-0.5 1.7,-0.6 3.5,-1.1 5.3,-1.6 1.3,-0.3 2.7,-0.6 4,-0.9 0.4,-0.1 4.9,-0.6 1.4,-0.3 2.7,-0.3 5.5,-0.4 8.2,-0.4 1.4,0 2.7,0.1 4.1,0.2 0.4,0 4.9,0.6 1.5,0.1 3.2,0.5 6.3,1.2 9.4,2.1 1.3,0.4 2.6,0.9 3.9,1.3 4.2,1.3 -2.4,-1.3 1.6,0.6 2.5,1.2 5,2.5 7.4,4 1.2,0.8 2.4,1.6 3.6,2.4 2.4,1.6 0.9,0.7 0.4,0.3 2.3,1.8 4.4,3.8 6.5,5.9 7.1,7.4 11.5,15.8 13.8,26.6 0.3,1.3 0.5,2.7 0.7,4.1 -0.5,-3.4 0,1.1 0.1,1.5 0.2,2.7 0.2,5.5 0.1,8.2 -0.1,1.4 -0.2,2.7 -0.3,4.1 0.3,-3.4 -0.2,1 -0.3,1.4 -0.6,3.2 -1.4,6.3 -2.5,9.3 -0.1,0.3 -1.7,4.5 -0.5,1.6 -0.5,1.3 -1.2,2.6 -1.8,3.8 -1.3,2.5 -2.7,5 -4.3,7.3 0.2,-0.3 -2.6,3.5 -1.4,2 1.2,-1.6 -1.8,2.1 -1.6,1.8 -1,1.2 -2.1,2.3 -3.2,3.4 -2.4,2.4 -4.8,4.8 -7.1,7.1 -19.5,19.5 -39,39 -58.5,58.5 -5.7,5.7 -5.7,15.5 0,21.2 5.9,5.7 15.6,5.7 21.4,-0.1 z" /></g></g><g
       style="fill:#ffffff"
       id="g12"><g
         style="fill:#ffffff"
         id="g10"><path
           style="fill:#ffffff"
           id="path8"
           d="m 162,219.5 c -18.8,18.8 -37.5,37.5 -56.3,56.3 -10.6,10.6 -20.8,20.9 -26.8,35 -11.1,25.7 -9.3,56.5 6.7,79.9 15.9,23.5 42.7,38.2 71.3,37.6 22.7,-0.4 43.4,-10.1 59.4,-26 20.1,-20.1 40.2,-40.2 60.3,-60.3 13.4,-13.4 24.1,-29.2 27.1,-48.3 4.5,-27.8 -4.1,-56.5 -25,-75.9 -6,-5.6 -12.7,-10.3 -20.1,-14 -7.3,-3.6 -16.2,-1.9 -20.5,5.4 -3.9,6.6 -1.9,16.9 5.4,20.5 6,3 10.5,5.9 14.6,9.8 1.8,1.7 3.5,3.6 5.2,5.5 3,3.3 -1.3,-2.2 1.2,1.5 1.1,1.6 2.1,3.1 3.1,4.8 1.4,2.4 2.8,4.9 3.8,7.5 -1.2,-2.9 0.4,1.3 0.5,1.6 0.4,1.3 0.9,2.6 1.2,4 0.7,2.7 1.3,5.4 1.7,8.1 -0.5,-3.4 0,1.1 0.1,1.5 0.1,1.8 0.2,3.7 0.2,5.5 0,1.4 -0.1,2.7 -0.2,4.1 0,0.4 -0.6,4.9 -0.1,1.5 -0.4,2.7 -1,5.4 -1.7,8.1 -0.4,1.3 -0.8,2.7 -1.2,4 -0.1,0.3 -1.7,4.5 -0.5,1.6 -1.3,3 -2.8,5.9 -4.6,8.7 -2.8,4.5 -5.2,7 -9.6,11.5 -19.3,19.3 -38.5,38.5 -57.8,57.8 -2,2 -3.9,4 -5.9,5.9 -1.4,1.4 -2.9,2.7 -4.4,4 -3.3,3 2.2,-1.3 -1.5,1.2 -1.2,0.8 -2.3,1.6 -3.6,2.4 -2.4,1.5 -4.9,2.8 -7.4,4 -4,1.9 2.6,-0.7 -1.6,0.6 -1.8,0.6 -3.5,1.2 -5.3,1.7 -9.9,2.7 -18.8,2.7 -28.7,0 -1.3,-0.4 -2.7,-0.8 -4,-1.2 -0.3,-0.1 -4.5,-1.7 -1.6,-0.5 -2.6,-1.1 -5.1,-2.4 -7.5,-3.8 -1.2,-0.7 -2.4,-1.5 -3.6,-2.3 -0.1,-0.1 -3.8,-2.9 -1.6,-1.1 -2.3,-1.8 -4.4,-3.8 -6.5,-5.9 -6.6,-6.9 -11.1,-15.4 -13.5,-25.3 -0.3,-1.3 -0.5,-2.7 -0.8,-4 -0.9,-4.3 0,2.9 -0.2,-1.5 -0.1,-2.7 -0.3,-5.5 -0.2,-8.2 0,-1.4 0.2,-2.7 0.2,-4.1 0.2,-4.4 -0.7,2.8 0.2,-1.5 0.6,-3.2 1.3,-6.3 2.3,-9.4 2.2,-6.9 7.3,-15.2 13.2,-21.2 2.4,-2.4 4.8,-4.8 7.1,-7.1 19.5,-19.5 39,-39 58.5,-58.5 5.7,-5.7 5.7,-15.5 0,-21.2 -5.5,-6.1 -15.2,-6.1 -21,-0.3 z" /></g></g></g></svg>