<?xml version="1.0" encoding="UTF-8" standalone="no"?>
<svg
   xmlns:dc="http://purl.org/dc/elements/1.1/"
   xmlns:cc="http://creativecommons.org/ns#"
   xmlns:rdf="http://www.w3.org/1999/02/22-rdf-syntax-ns#"
   xmlns:svg="http://www.w3.org/2000/svg"
   xmlns="http://www.w3.org/2000/svg"
   xmlns:sodipodi="http://sodipodi.sourceforge.net/DTD/sodipodi-0.dtd"
   xmlns:inkscape="http://www.inkscape.org/namespaces/inkscape"
   id="linkedin-logo-blue-21"
   width="40"
   height="40"
   version="1.1"
   sodipodi:docname="in.svg"
   inkscape:version="0.92.4 (33fec40, 2019-01-16)">
  <metadata
     id="metadata907">
    <rdf:RDF>
      <cc:Work
         rdf:about="">
        <dc:format>image/svg+xml</dc:format>
        <dc:type
           rdf:resource="http://purl.org/dc/dcmitype/StillImage" />
        <dc:title>LinkedIn logo</dc:title>
      </cc:Work>
    </rdf:RDF>
  </metadata>
  <defs
     id="defs905" />
  <sodipodi:namedview
     pagecolor="#ffffff"
     bordercolor="#666666"
     borderopacity="1"
     objecttolerance="10"
     gridtolerance="10"
     guidetolerance="10"
     inkscape:pageopacity="0"
     inkscape:pageshadow="2"
     inkscape:window-width="1680"
     inkscape:window-height="999"
     id="namedview903"
     showgrid="false"
     fit-margin-top="0"
     fit-margin-left="0"
     fit-margin-right="0"
     fit-margin-bottom="0"
     inkscape:zoom="8"
     inkscape:cx="54.00657"
     inkscape:cy="13.195347"
     inkscape:window-x="0"
     inkscape:window-y="27"
     inkscape:window-maximized="1"
     inkscape:current-layer="linkedin-logo-blue-21" />
  <title
     id="title886">LinkedIn logo</title>
  <rect
     style="opacity:0;fill:#ffffff;fill-opacity:1;stroke:none;stroke-width:9.52794647;stroke-miterlimit:4;stroke-dasharray:none;stroke-opacity:1"
     id="rect1359"
     width="40"
     height="40"
     x="0"
     y="0" />
  <g
     id="g1377"
     transform="translate(-8)">
    <rect
       y="4"
       x="11.624998"
       height="32"
       width="32"
       id="rect1367"
       style="opacity:1;fill:#ffffff;fill-opacity:1;stroke-width:0.7448504" />
    <path
       style="fill:#0a65c2;fill-opacity:1;stroke-width:1.90476191"
       inkscape:connector-curvature="0"
       id="path900"
       d="M 45.172618,-0.125 H 11.077379 c -1.5238089,0 -2.8571429,1.3333333 -3.0476189,2.8571429 V 37.017857 c 0,1.52381 1.333333,2.857143 3.0476189,2.857143 h 34.095239 c 1.52381,0 2.857143,-1.333333 3.047619,-2.857143 V 2.7321429 C 48.220237,1.2083333 46.886904,-0.125 45.172618,-0.125 Z M 20.029761,33.970238 H 14.124998 V 14.922619 h 5.904763 z M 16.982142,12.255952 c -1.904763,0 -3.428572,-1.523809 -3.428572,-3.4285711 0,-1.9047619 1.523809,-3.4285714 3.428572,-3.4285714 1.904762,0 3.428571,1.5238095 3.428571,3.4285714 0,1.9047621 -1.523809,3.4285711 -3.428571,3.4285711 z m 25.333333,21.714286 h -5.904762 v -9.333333 c 0,-2.285715 0,-5.142857 -3.047619,-5.142857 -3.047619,0 -3.619047,2.47619 -3.619047,4.952381 v 9.523809 H 23.839285 V 14.922619 h 5.714285 v 2.666667 c 1.142858,-1.904762 3.238096,-3.238096 5.52381,-3.047619 6.095238,0 7.047619,4 7.047619,9.142857 z"
       class="st0" />
  </g>
</svg>
