<?xml version="1.0" encoding="UTF-8" standalone="no"?>
<svg
   xmlns:dc="http://purl.org/dc/elements/1.1/"
   xmlns:cc="http://creativecommons.org/ns#"
   xmlns:rdf="http://www.w3.org/1999/02/22-rdf-syntax-ns#"
   xmlns:svg="http://www.w3.org/2000/svg"
   xmlns="http://www.w3.org/2000/svg"
   height="76.000031"
   width="68"
   id="svg10"
   viewBox="0 0 68 76.000031"
   y="0px"
   x="0px"
   version="1.1">
  <metadata
     id="metadata16">
    <rdf:RDF>
      <cc:Work
         rdf:about="">
        <dc:format>image/svg+xml</dc:format>
        <dc:type
           rdf:resource="http://purl.org/dc/dcmitype/StillImage" />
        <dc:title></dc:title>
      </cc:Work>
    </rdf:RDF>
  </metadata>
  <defs
     id="defs14" />
  <g
     style="fill:#ffffff"
     id="g4"
     transform="translate(-16,-964.36217)">
    <path
       id="path2"
       overflow="visible"
       display="inline"
       visibility="visible"
       marker="none"
       d="m 50,964.36217 c -11.6167,0 -21,9.3833 -21,21 v 9.00003 h -8 c -2.7527,0 -5,2.2473 -5,5 v 36 c 0,2.7527 2.2473,5 5,5 h 58 c 2.7527,0 5,-2.2473 5,-5 v -36 c 0,-2.7527 -2.2473,-5 -5,-5 h -8 v -9.00003 c 0,-11.6167 -9.3833,-21 -21,-21 z m 0,2 c 10.5433,0 19,8.4567 19,19 v 9.00003 H 31 v -9.00003 c 0,-10.5433 8.4567,-19 19,-19 z M 21,996.3622 h 58 c 1.6793,0 3,1.3207 3,3 v 36 c 0,1.6793 -1.3207,3 -3,3 H 21 c -1.6793,0 -3,-1.3207 -3,-3 v -36 c 0,-1.6793 1.3207,-3 3,-3 z m 29,10 c -3.8541,0 -7,3.1458 -7,7 0,1.8581 0.8139,3.4649 2,4.7187 v 5.2813 c 0,2.7527 2.2473,5 5,5 2.7527,0 5,-2.2473 5,-5 v -5.2813 c 1.1862,-1.2538 2,-2.8606 2,-4.7187 0,-3.8542 -3.1458,-7 -7,-7 z m 0,2 c 2.7733,0 5,2.2267 5,5 0,1.4859 -0.6321,2.8015 -1.6562,3.7187 -0.2139,0.186 -0.3425,0.4665 -0.3438,0.75 v 5.5313 c 0,1.6793 -1.3207,3 -3,3 -1.6793,0 -3,-1.3207 -3,-3 v -5.5313 c 0,-0.2835 -0.1298,-0.564 -0.3437,-0.75 -1.0242,-0.9172 -1.6563,-2.2328 -1.6563,-3.7187 0,-2.7733 2.2267,-5 5,-5 z"
       style="color:#000000;text-indent:0;text-transform:none;direction:ltr;baseline-shift:baseline;display:inline;overflow:visible;visibility:visible;fill:#ffffff;fill-opacity:1;stroke:none;enable-background:accumulate" />
  </g>
</svg>
