<svg xmlns:dc="http://purl.org/dc/elements/1.1/" xmlns:cc="http://creativecommons.org/ns#" xmlns:rdf="http://www.w3.org/1999/02/22-rdf-syntax-ns#" xmlns:svg="http://www.w3.org/2000/svg" xmlns="http://www.w3.org/2000/svg" xmlns:sodipodi="http://sodipodi.sourceforge.net/DTD/sodipodi-0.dtd" xmlns:inkscape="http://www.inkscape.org/namespaces/inkscape" version="1.1" x="0px" y="0px" viewBox="0 0 100 125"><g transform="translate(0,-952.36218)"><path style="text-indent:0;text-transform:none;direction:ltr;block-progression:tb;baseline-shift:baseline;color:#000000;enable-background:accumulate;" d="m 50,964.36217 c -11.6167,0 -21,9.3833 -21,21 l 0,9.00003 -8,0 c -2.7527,0 -5,2.2473 -5,5 l 0,36 c 0,2.7527 2.2473,5 5,5 l 58,0 c 2.7527,0 5,-2.2473 5,-5 l 0,-36 c 0,-2.7527 -2.2473,-5 -5,-5 l -8,0 0,-9.00003 c 0,-11.6167 -9.3833,-21 -21,-21 z m 0,2 c 10.5433,0 19,8.4567 19,19 l 0,9.00003 -38,0 0,-9.00003 c 0,-10.5433 8.4567,-19 19,-19 z m -29,30.00003 58,0 c 1.6793,0 3,1.3207 3,3 l 0,36 c 0,1.6793 -1.3207,3 -3,3 l -58,0 c -1.6793,0 -3,-1.3207 -3,-3 l 0,-36 c 0,-1.6793 1.3207,-3 3,-3 z m 29,10 c -3.8541,0 -7,3.1458 -7,7 0,1.8581 0.8139,3.4649 2,4.7187 l 0,5.2813 c 0,2.7527 2.2473,5 5,5 2.7527,0 5,-2.2473 5,-5 l 0,-5.2813 c 1.1862,-1.2538 2,-2.8606 2,-4.7187 0,-3.8542 -3.1458,-7 -7,-7 z m 0,2 c 2.7733,0 5,2.2267 5,5 0,1.4859 -0.6321,2.8015 -1.6562,3.7187 -0.2139,0.186 -0.3425,0.4665 -0.3438,0.75 l 0,5.5313 c 0,1.6793 -1.3207,3 -3,3 -1.6793,0 -3,-1.3207 -3,-3 l 0,-5.5313 c 0,-0.2835 -0.1298,-0.564 -0.3437,-0.75 -1.0242,-0.9172 -1.6563,-2.2328 -1.6563,-3.7187 0,-2.7733 2.2267,-5 5,-5 z" fill="#000000" fill-opacity="1" stroke="none" marker="none" visibility="visible" display="inline" overflow="visible"/></g><text x="0" y="115" fill="#000000" font-size="5px" font-weight="bold" font-family="'Helvetica Neue', Helvetica, Arial-Unicode, Arial, Sans-serif">Created by Aya Sofya</text><text x="0" y="120" fill="#000000" font-size="5px" font-weight="bold" font-family="'Helvetica Neue', Helvetica, Arial-Unicode, Arial, Sans-serif">from the Noun Project</text></svg>