<?xml version="1.0" encoding="UTF-8" standalone="no"?>
<svg
   xmlns:dc="http://purl.org/dc/elements/1.1/"
   xmlns:cc="http://creativecommons.org/ns#"
   xmlns:rdf="http://www.w3.org/1999/02/22-rdf-syntax-ns#"
   xmlns:svg="http://www.w3.org/2000/svg"
   xmlns="http://www.w3.org/2000/svg"
   viewBox="0 0 288.79822 194.31081"
   height="194.31081"
   width="288.79822"
   xml:space="preserve"
   id="svg2"
   version="1.1"><metadata
     id="metadata8"><rdf:RDF><cc:Work
         rdf:about=""><dc:format>image/svg+xml</dc:format><dc:type
           rdf:resource="http://purl.org/dc/dcmitype/StillImage" /><dc:title></dc:title></cc:Work></rdf:RDF></metadata><defs
     id="defs6" /><g
     transform="matrix(1.3333333,0,0,-1.3333333,-6.7817732,248.33733)"
     id="g10"><g
       transform="scale(0.1)"
       id="g12"><path
         id="path14"
         style="fill:#ffffff;fill-opacity:1;fill-rule:nonzero;stroke:none"
         d="m 1394.58,1448.57 h 20 v 119.73 c -0.35,81.02 -31.62,154.5 -82.18,207.76 -50.51,53.27 -120.7,86.49 -198.08,86.47 l -1.71,-0.01 0.48,-20 -0.1,20 c -77.17,-0.36 -147.037,-33.73 -197.271,-86.98 -50.293,-53.24 -81.34,-126.52 -81.696,-207.23 v -0.09 -119.65 -0.09 c 0.36,-81 31.622,-154.48 82.18,-207.74 50.5,-53.26 120.687,-86.48 198.067,-86.46 h 1.14 0.22 -0.01 c 77.17,0.36 147.04,33.73 197.28,86.97 50.28,53.24 81.33,126.53 81.68,207.23 v 0.09 h -20 l -20,0.09 c -0.31,-70.5 -27.39,-134.01 -70.77,-179.94 -43.42,-45.93 -102.76,-74.11 -168.39,-74.45 l 0.1,-20 0.12,20 h -1.37 c -65.8,0.02 -125.4,28.07 -169.055,74.01 -43.606,45.95 -70.879,109.63 -71.192,180.38 v -0.09 119.65 -0.09 c 0.313,70.5 27.399,134.01 70.774,179.94 43.433,45.93 102.763,74.11 168.393,74.46 h 0.25 0.13 l 0.75,0.01 c 65.8,-0.02 125.41,-28.07 169.07,-74.02 43.61,-45.95 70.88,-109.62 71.19,-180.39 v 0.09 -119.65 0.09 l 20,-0.09" /><path
         id="path16"
         style="fill:#ffffff;fill-opacity:1;fill-rule:nonzero;stroke:none"
         d="m 750.172,1049.39 10.832,16.81 c -38.207,24.63 -81.633,39.09 -126.445,42.01 l -1.301,-19.96 1.586,19.94 c -1.449,0.11 -2.93,0.18 -4.453,0.18 -6.43,0.01 -12.586,-1.17 -18.008,-3.22 -8.176,-3.08 -14.488,-7.91 -19.27,-12.57 -4.797,-4.68 -8.277,-9.29 -11,-12.79 -27.41,-35.39 -66.562,-53.27 -106.039,-53.31 -30.375,0.03 -60.824,10.6 -86.469,32.79 -8.808,7.64 -16.718,16.43 -23.535,26.17 -10.019,14.39 -26.382,23.3 -44.004,23.28 -0.273,0 -0.898,0.01 -1.894,-0.04 l 1.074,-19.97 -0.539,19.99 c -75.348,-2.01 -143.086,-35.75 -191.59,-88.48 C 80.5625,967.5 50.875,895.629 50.8633,816.82 V 581.148 c 0,-15.16 5.8203,-29.16 15.5039,-39.41 9.625,-10.25 23.5117,-16.918 38.7888,-16.898 h 592.746 l 73.825,534.45 -10.723,6.91 -10.832,-16.81 -19.813,2.74 -67.312,-487.29 H 105.156 c -3.664,0.019 -6.9216,1.48 -9.7068,4.371 -2.7304,2.898 -4.5859,7.051 -4.5859,11.937 v 235.661 c 0.0078,68.711 25.8667,130.91 67.6757,176.32 41.863,45.401 99.305,73.851 163.242,75.581 l 0.274,0.01 0.265,0.02 -0.527,9.82 0.129,-9.84 0.398,0.02 -0.527,9.82 0.129,-9.84 h 0.144 c 4.125,-0.01 8.254,-2.01 11.223,-6.19 8.668,-12.41 18.785,-23.66 30.121,-33.49 32.828,-28.48 72.926,-42.591 112.664,-42.56 51.649,-0.05 102.887,23.77 137.692,68.85 3.562,4.68 6.687,8.41 9.277,10.38 1.285,1 2.367,1.6 3.426,2 1.07,0.39 2.164,0.65 3.922,0.66 l 1.277,-0.06 0.289,-0.02 c 37.938,-2.47 74.766,-14.69 107.379,-35.71 l 10.836,16.81 -19.813,2.74 z M 660.473,544.84 v -83.328 c 0,-15.16 5.82,-29.16 15.504,-39.41 9.625,-10.243 23.511,-16.922 38.789,-16.903 h 839.084 c 15.28,-0.019 29.16,6.66 38.79,16.91 9.68,10.243 15.5,24.243 15.5,39.403 v 84.726 l -70.28,506.242 -39.62,-5.5 69.9,-503.539 v -81.929 c 0,-4.891 -1.86,-9.043 -4.59,-11.942 -2.78,-2.89 -6.04,-4.351 -9.7,-4.371 H 714.766 c -3.664,0.02 -6.922,1.481 -9.707,4.371 -2.731,2.899 -4.586,7.051 -4.586,11.942 v 83.328 h -39.996 z m 868.387,488.07 c 35.08,22.52 74.97,34.82 115.8,35.79 l 0.22,0.01 h -0.01 0.17 l -0.01,0.34 v -0.33 l 0.01,-0.01 -0.01,0.34 v -0.33 c 4.12,-0.02 8.23,-2.01 11.2,-6.2 8.66,-12.41 18.78,-23.66 30.12,-33.49 32.84,-28.49 72.93,-42.589 112.67,-42.561 51.65,-0.047 102.89,23.771 137.69,68.851 3.58,4.7 6.7,8.42 9.27,10.38 1.29,1 2.35,1.6 3.41,2 1.07,0.39 2.16,0.64 3.94,0.66 l 1.2,-0.05 0.15,-0.01 0.18,-0.02 c 62.09,-4.21 117.32,-33.48 157.39,-78.639 40.03,-45.153 64.56,-106 64.6,-172.84 V 581.148 c 0,-4.886 -1.85,-9.039 -4.58,-11.937 -2.79,-2.891 -6.05,-4.352 -9.71,-4.371 h -574.42 v -40 h 574.42 c 15.28,-0.02 29.16,6.648 38.79,16.91 9.68,10.238 15.5,24.238 15.5,39.398 v 235.661 c -0.04,76.679 -28.2,146.972 -74.67,199.371 -46.42,52.4 -111.46,87.08 -184.63,92.01 l -1.34,-19.95 1.67,19.93 c -1.61,0.13 -3.13,0.19 -4.55,0.18 -6.44,0.02 -12.6,-1.16 -18.03,-3.22 -8.19,-3.08 -14.5,-7.92 -19.27,-12.58 -4.79,-4.69 -8.25,-9.28 -10.96,-12.76 -27.42,-35.4 -66.57,-53.28 -106.05,-53.32 -30.37,0.02 -60.82,10.6 -86.48,32.79 -8.81,7.64 -16.72,16.42 -23.52,26.17 -10.01,14.39 -26.38,23.3 -43.99,23.28 l -1.54,-0.02 0.69,-19.99 -0.47,19.99 c -48.26,-1.14 -95.35,-15.71 -136.47,-42.13 l 21.62,-33.66 z m 4.71,29.43 c -54.15,66.71 -131.89,107.67 -215.41,113.01 l -0.24,0.01 -0.18,0.01 c -0.79,0.03 -1.63,0.06 -2.53,0.06 -6.36,0.01 -12.51,-1.1 -17.98,-3.12 -8.26,-3.02 -14.73,-7.9 -19.67,-12.7 -4.96,-4.84 -8.65,-9.67 -11.83,-13.74 l -0.04,-0.04 c -32.8,-42.39 -79.79,-63.88 -127.18,-63.93 -36.45,0.03 -73.01,12.74 -103.72,39.32 -10.57,9.15 -20.05,19.69 -28.21,31.37 l 0.03,-0.04 c -9.989,14.41 -26.348,23.32 -43.95,23.31 -0.305,0 -0.926,0.01 -1.887,-0.04 l 0.985,-19.98 -0.488,20 c -80.774,-1.96 -157.442,-37.48 -213.383,-98.44 l 0.039,0.05 c -4.727,-5.12 -9.11,-10.32 -13.281,-15.45 l 31.054,-25.22 c 3.836,4.73 7.676,9.27 11.606,13.52 l 0.043,0.05 c 48.922,53.26 115.269,83.79 184.894,85.5 l 0.297,0.01 0.199,0.01 -0.383,7.85 0.094,-7.86 0.289,0.01 -0.383,7.85 0.094,-7.86 h 0.211 c 4.082,-0.01 8.184,-1.99 11.11,-6.15 l 0.027,-0.04 c 10.019,-14.34 21.703,-27.34 34.793,-38.68 37.9,-32.87 84.11,-49.12 129.92,-49.09 59.56,-0.05 118.64,27.39 158.83,79.47 l -0.03,-0.04 c 4.14,5.4 7.58,9.45 10.22,11.43 1.33,1.02 2.38,1.6 3.46,2 1.09,0.38 2.27,0.66 4.22,0.67 l 0.81,-0.02 0.86,19.98 -1.28,-19.96 c 72.06,-4.62 139.46,-39.9 186.93,-98.31 l 31.05,25.22" /><path
         id="path18"
         style="fill:#ffffff;fill-opacity:1;fill-rule:nonzero;stroke:none"
         d="m 2027.43,1363.45 h 19.99 v 97.84 c 0.02,68.93 -28.3,131.5 -73.91,176.58 -45.58,45.11 -108.7,73.03 -178.18,73.02 -69.49,0.01 -132.61,-27.91 -178.19,-73.02 -45.61,-45.08 -73.92,-107.65 -73.91,-176.58 v -97.84 c -0.01,-68.92 28.3,-131.48 73.91,-176.56 45.58,-45.11 108.7,-73.03 178.19,-73.02 69.48,-0.01 132.6,27.91 178.18,73.02 45.61,45.08 73.93,107.64 73.91,176.56 h -19.99 -20 c -0.02,-57.87 -23.66,-110.11 -62.05,-148.12 -38.42,-37.98 -91.36,-61.46 -150.05,-61.47 -58.7,0.01 -111.64,23.49 -150.06,61.47 -38.39,38.01 -62.03,90.25 -62.04,148.12 v 97.84 c 0.01,57.89 23.65,110.12 62.04,148.14 38.42,37.98 91.36,61.46 150.06,61.46 58.69,0 111.63,-23.48 150.05,-61.46 38.39,-38.02 62.03,-90.25 62.05,-148.14 v -97.84 h 20" /><path
         id="path20"
         style="fill:#ffffff;fill-opacity:1;fill-rule:nonzero;stroke:none"
         d="m 704.488,1363.45 h 19.996 v 97.84 c 0.012,68.93 -28.3,131.5 -73.91,176.58 -45.582,45.11 -108.691,73.03 -178.179,73.02 -69.493,0.01 -132.606,-27.91 -178.188,-73.02 -45.609,-45.08 -73.926,-107.65 -73.914,-176.58 v -97.84 c -0.012,-68.92 28.305,-131.48 73.914,-176.56 45.582,-45.11 108.695,-73.03 178.188,-73.02 69.484,-0.01 132.597,27.91 178.179,73.02 45.61,45.08 73.922,107.64 73.91,176.56 h -19.996 -20 c -0.011,-57.87 -23.652,-110.11 -62.047,-148.12 -38.418,-37.98 -91.351,-61.46 -150.046,-61.47 -58.7,0.01 -111.633,23.49 -150.055,61.47 -38.395,38.01 -62.035,90.25 -62.047,148.12 v 97.84 c 0.012,57.89 23.652,110.12 62.047,148.14 38.422,37.98 91.355,61.46 150.055,61.46 58.695,0 111.628,-23.48 150.046,-61.46 38.395,-38.02 62.036,-90.25 62.047,-148.14 v -97.84 h 20" /></g></g></svg>