<?xml version="1.0" encoding="UTF-8" standalone="no"?>
<svg
   xmlns:dc="http://purl.org/dc/elements/1.1/"
   xmlns:cc="http://creativecommons.org/ns#"
   xmlns:rdf="http://www.w3.org/1999/02/22-rdf-syntax-ns#"
   xmlns:svg="http://www.w3.org/2000/svg"
   xmlns="http://www.w3.org/2000/svg"
   xmlns:sodipodi="http://sodipodi.sourceforge.net/DTD/sodipodi-0.dtd"
   xmlns:inkscape="http://www.inkscape.org/namespaces/inkscape"
   version="1.1"
   id="layer"
   x="0px"
   y="0px"
   viewBox="0 0 1230.4506 1123.2423"
   xml:space="preserve"
   width="1230.4506"
   height="1123.2423"
   sodipodi:docname="sembcorp.svg"
   inkscape:version="0.92.4 (5da689c313, 2019-01-14)"><sodipodi:namedview
   pagecolor="#ffffff"
   bordercolor="#666666"
   borderopacity="1"
   objecttolerance="10"
   gridtolerance="10"
   guidetolerance="10"
   inkscape:pageopacity="0"
   inkscape:pageshadow="2"
   inkscape:window-width="1920"
   inkscape:window-height="1016"
   id="namedview33"
   showgrid="false"
   fit-margin-top="0"
   fit-margin-left="0"
   fit-margin-right="0"
   fit-margin-bottom="0"
   inkscape:zoom="0.55166667"
   inkscape:cx="748.42252"
   inkscape:cy="501.80244"
   inkscape:window-x="0"
   inkscape:window-y="36"
   inkscape:window-maximized="1"
   inkscape:current-layer="layer" /><metadata
   id="metadata63"><rdf:RDF><cc:Work
       rdf:about=""><dc:format>image/svg+xml</dc:format><dc:type
         rdf:resource="http://purl.org/dc/dcmitype/StillImage" /><dc:title></dc:title></cc:Work></rdf:RDF></metadata><defs
   id="defs61" />
<style
   type="text/css"
   id="style2">
	.st0{fill:#008265;}
</style>








<path
   class="st0"
   d="M 523.73325,628.03613 15.24867,645.04426 c -0.58649,2.93244 -1.75946,6.45136 -2.34595,9.97027 l 536.0495,28.15141 c -8.21083,-18.18111 -16.42165,-36.36222 -25.21897,-55.12981"
   id="path20"
   inkscape:connector-curvature="0"
   style="fill:#008265;stroke-width:5.86487436" />
<path
   class="st0"
   d="m 452.76827,282.00852 -237.5274,15.83516 c -4.10541,4.6919 -8.21082,8.79731 -11.72974,12.90272 l 242.80578,11.14326 c 1.75946,-14.07569 3.51894,-27.5649 6.45136,-39.88114"
   id="path22"
   inkscape:connector-curvature="0"
   style="fill:#008265;stroke-width:5.86487436" />
<path
   class="st0"
   d="m 442.798,397.54654 -319.63565,14.66218 c -3.51892,4.69191 -7.03785,9.9703 -9.97028,15.24868 l 336.64378,16.42165 c -3.51894,-15.83516 -5.86489,-31.08383 -7.03785,-46.33251"
   id="path24"
   inkscape:connector-curvature="0"
   style="fill:#008265;stroke-width:5.86487436" />
<path
   class="st0"
   d="m 493.23591,168.81645 -146.03537,11.72976 c -6.45136,4.69188 -12.31623,9.38379 -18.76759,14.07569 -1.17298,1.17298 -2.93244,2.34595 -4.6919,3.51893 l 153.6597,4.10541 c 4.6919,-11.72975 10.55677,-22.87301 15.83516,-33.42979"
   id="path26"
   inkscape:connector-curvature="0"
   style="fill:#008265;stroke-width:5.86487436" />
<path
   class="st0"
   d="M 473.88183,513.67105 56.88927,528.33323 c -1.75946,3.51893 -3.51892,7.62434 -4.69189,11.14326 l 445.73043,22.87302 c -8.79731,-16.42166 -17.00814,-32.2568 -24.04598,-48.67846"
   id="path28"
   inkscape:connector-curvature="0"
   style="fill:#008265;stroke-width:5.86487436" />
<path
   class="st0"
   d="m 651.00102,330.68697 579.44958,25.80546 c 0,-43.98655 -6.4514,-86.21365 -19.9406,-124.92183 l -579.44955,38.12169 c 4.6919,19.94057 11.72975,39.88114 19.94057,60.99468"
   id="path30"
   inkscape:connector-curvature="0"
   style="fill:#008265;stroke-width:5.86487436" />
<path
   class="st0"
   d="m 612.29286,39.789232 c -45.15954,15.24867 -90.90556,34.60275 -136.06508,58.64874 l 65.1001,1.17296 c 22.28652,-24.63247 46.3325,-44.57303 70.96498,-59.8217"
   id="path32"
   inkscape:connector-curvature="0"
   style="fill:#008265;stroke-width:5.86487436" />
<path
   class="st0"
   d="M 575.93063,740.05522 0,759.4093 v 8.79731 l 602.90906,34.60276 c -8.21082,-20.52706 -17.00814,-41.05412 -26.97843,-62.75415"
   id="path34"
   inkscape:connector-curvature="0"
   style="fill:#008265;stroke-width:5.86487436" />
<path
   class="st0"
   d="m 1159.4856,136.55965 c -5.2784,-6.45137 -10.5568,-12.90273 -15.8351,-18.7676 l -510.2441,39.88114 c -1.17297,2.93245 -2.34595,6.45136 -3.51892,9.97028 -4.10541,11.72976 -6.45136,24.63248 -6.45136,38.70818 l 584.72798,16.42164 c -12.3163,-31.08384 -28.7379,-59.8217 -48.6785,-86.21364"
   id="path36"
   inkscape:connector-curvature="0"
   style="fill:#008265;stroke-width:5.86487436" />
<path
   class="st0"
   d="M 814.04452,0.49456155 C 742.49307,7.5324115 696.16056,36.856792 659.21184,101.95688 l 479.16026,10.55677 C 1060.9557,32.164892 944.83122,-4.7838185 814.04452,0.49456155"
   id="path38"
   inkscape:connector-curvature="0"
   style="fill:#008265;stroke-width:5.86487436" />
<path
   class="st0"
   d="m 753.63633,557.07111 v 0 c 2.93242,6.45137 6.45136,12.90274 9.38379,19.3541 l 409.95468,21.11357 c 17.0082,-36.94873 30.4974,-73.31096 39.8812,-110.25966 l -482.67918,17.00813 c 8.21082,18.18111 15.83516,35.77573 23.45951,52.78386"
   id="path40"
   inkscape:connector-curvature="0"
   style="fill:#008265;stroke-width:5.86487436" />
<path
   class="st0"
   d="m 805.8337,696.65515 300.868,15.83516 c 23.4595,-34.60276 43.9866,-70.3785 60.9947,-106.15422 l -386.49517,12.90273 c 11.14326,25.21894 19.94057,50.43791 24.63247,77.41633"
   id="path42"
   inkscape:connector-curvature="0"
   style="fill:#008265;stroke-width:5.86487436" />
<path
   class="st0"
   d="m 706.13084,455.02231 508.48456,24.63248 c 9.9703,-39.88115 15.2487,-79.76229 15.8352,-117.88398 l -555.99009,25.21896 c 9.9703,22.28653 21.11356,45.74602 31.67033,68.03254"
   id="path44"
   inkscape:connector-curvature="0"
   style="fill:#008265;stroke-width:5.86487436" />
<path
   class="st0"
   d="m 809.35262,772.31202 c -1.75946,14.66219 -3.51892,28.73789 -5.86487,41.64061 l 211.72195,12.31624 c 31.6703,-33.42979 59.8217,-68.03254 85.0407,-103.80828 l -289.72479,9.97029 c 0.58647,12.90272 0.58647,25.80545 -1.17299,39.88114"
   id="path46"
   inkscape:connector-curvature="0"
   style="fill:#008265;stroke-width:5.86487436" />
<path
   class="st0"
   d="M 617.57124,968.19882 69.792,986.37993 c 0,0.58649 0.58648,0.58649 0.58648,1.17297 3.51893,4.10541 7.03785,8.21084 10.55678,12.9027 l 505.55214,30.4974 c 11.72975,-18.7676 21.70005,-39.29469 31.08384,-62.75418"
   id="path48"
   inkscape:connector-curvature="0"
   style="fill:#008265;stroke-width:5.86487436" />
<path
   class="st0"
   d="m 544.26032,1081.3909 -330.19241,10.5568 c 68.03253,26.9784 147.20833,36.3622 232.249,28.7379 39.29466,-4.6919 70.96498,-17.0082 97.94341,-39.2947"
   id="path50"
   inkscape:connector-curvature="0"
   style="fill:#008265;stroke-width:5.86487436" />
<path
   class="st0"
   d="M 620.50368,855.00675 14.07569,875.53381 c 1.17298,3.51892 1.75947,6.45136 2.93244,9.97028 l 612.29286,35.18925 c 1.17297,-20.52706 -2.34595,-42.2271 -8.79731,-65.68659"
   id="path52"
   inkscape:connector-curvature="0"
   style="fill:#008265;stroke-width:5.86487436" />
<path
   class="st0"
   d="m 693.22812,1036.2314 35.77573,2.3459 c 44.57304,-21.7 88.55959,-48.09196 131.37318,-78.00282 l -109.08665,3.51893 c -17.59462,28.73788 -36.94872,52.78389 -58.06226,72.13799"
   id="path54"
   inkscape:connector-curvature="0"
   style="fill:#008265;stroke-width:5.86487436" />
<path
   class="st0"
   d="m 768.885,928.31768 124.33532,7.03784 c 2.93245,-2.34594 5.86487,-4.10541 8.79731,-6.45136 35.18925,-27.56491 67.44605,-56.30279 97.35692,-86.80013 l -203.51114,7.03785 c -7.03784,29.32436 -15.83515,55.7163 -26.97841,79.1758"
   id="path56"
   inkscape:connector-curvature="0"
   style="fill:#008265;stroke-width:5.86487436" />
</svg>