<svg xmlns="http://www.w3.org/2000/svg" xmlns:xlink="http://www.w3.org/1999/xlink" version="1.1" x="0px" y="0px" viewBox="0 0 32 40" enable-background="new 0 0 32 32" xml:space="preserve"><g><path d="M25,20c-1.591,0-2.994,0.761-3.911,1.923l-9.28-4.632C11.921,16.877,12,16.449,12,16s-0.079-0.877-0.19-1.291l9.28-4.632   C22.006,11.239,23.409,12,25,12c2.757,0,5-2.243,5-5s-2.243-5-5-5s-5,2.243-5,5c0,0.449,0.079,0.877,0.19,1.291l-9.28,4.632   C9.994,11.761,8.591,11,7,11c-2.757,0-5,2.243-5,5s2.243,5,5,5c1.591,0,2.994-0.761,3.911-1.923l9.28,4.632   C20.079,24.123,20,24.551,20,25c0,2.757,2.243,5,5,5s5-2.243,5-5S27.757,20,25,20z M25,4c1.654,0,3,1.346,3,3s-1.346,3-3,3   s-3-1.346-3-3S23.346,4,25,4z M7,19c-1.654,0-3-1.346-3-3s1.346-3,3-3s3,1.346,3,3S8.654,19,7,19z M25,28c-1.654,0-3-1.346-3-3   s1.346-3,3-3s3,1.346,3,3S26.654,28,25,28z"/></g><text x="0" y="47" fill="#000000" font-size="5px" font-weight="bold" font-family="'Helvetica Neue', Helvetica, Arial-Unicode, Arial, Sans-serif">Created by Agung Cahyo s</text><text x="0" y="52" fill="#000000" font-size="5px" font-weight="bold" font-family="'Helvetica Neue', Helvetica, Arial-Unicode, Arial, Sans-serif">from the Noun Project</text></svg>