<?xml version="1.0" encoding="UTF-8" standalone="no"?>
<svg
   xmlns:dc="http://purl.org/dc/elements/1.1/"
   xmlns:cc="http://creativecommons.org/ns#"
   xmlns:rdf="http://www.w3.org/1999/02/22-rdf-syntax-ns#"
   xmlns:svg="http://www.w3.org/2000/svg"
   xmlns="http://www.w3.org/2000/svg"
   height="58.994999"
   width="55.000999"
   xml:space="preserve"
   viewBox="0 0 55.001 58.995"
   y="0px"
   x="0px"
   id="Capa_1"
   version="1.1"><metadata
   id="metadata205"><rdf:RDF><cc:Work
       rdf:about=""><dc:format>image/svg+xml</dc:format><dc:type
         rdf:resource="http://purl.org/dc/dcmitype/StillImage" /><dc:title></dc:title></cc:Work></rdf:RDF></metadata><defs
   id="defs203" />
<path
   style="fill:#ffffff"
   id="path168"
   d="m 37.93,41.929 c -0.524,0.524 -0.975,1.1 -1.365,1.709 L 19.285,33.149 c 0.457,-1.144 0.716,-2.388 0.716,-3.693 0,-1.305 -0.259,-2.549 -0.715,-3.693 L 36.57,15.354 c 1.775,2.788 4.887,4.646 8.431,4.646 5.514,0 10,-4.486 10,-10 0,-5.514 -4.486,-10 -10,-10 -5.514,0 -10,4.486 -10,10 0,1.256 0.243,2.454 0.667,3.562 L 18.361,23.985 C 16.573,21.261 13.495,19.456 10,19.456 c -5.514,0 -10,4.486 -10,10 0,5.514 4.486,10 10,10 3.495,0 6.572,-1.805 8.36,-4.529 L 35.664,45.43 C 35.234,46.556 35,47.759 35,49 c 0,2.671 1.04,5.183 2.929,7.071 1.949,1.949 4.51,2.924 7.071,2.924 2.561,0 5.122,-0.975 7.071,-2.924 C 53.96,54.182 55,51.671 55,49 c 0,-2.671 -1.04,-5.183 -2.929,-7.071 -3.899,-3.9 -10.242,-3.9 -14.141,0 z M 45.001,2 c 4.411,0 8,3.589 8,8 0,4.411 -3.589,8 -8,8 -4.411,0 -8,-3.589 -8,-8 0,-4.411 3.588,-8 8,-8 z m -35,35.456 c -4.411,0 -8,-3.589 -8,-8 0,-4.411 3.589,-8 8,-8 4.411,0 8,3.589 8,8 0,4.411 -3.589,8 -8,8 z m 40.656,17.201 c -3.119,3.119 -8.194,3.119 -11.313,0 -1.511,-1.511 -2.343,-3.521 -2.343,-5.657 0,-2.136 0.832,-4.146 2.343,-5.657 1.56,-1.56 3.608,-2.339 5.657,-2.339 2.049,0 4.097,0.779 5.657,2.339 1.511,1.511 2.343,3.521 2.343,5.657 0,2.136 -0.832,4.146 -2.344,5.657 z" />
<g
   transform="translate(-1.997)"
   id="g170">
</g>
<g
   transform="translate(-1.997)"
   id="g172">
</g>
<g
   transform="translate(-1.997)"
   id="g174">
</g>
<g
   transform="translate(-1.997)"
   id="g176">
</g>
<g
   transform="translate(-1.997)"
   id="g178">
</g>
<g
   transform="translate(-1.997)"
   id="g180">
</g>
<g
   transform="translate(-1.997)"
   id="g182">
</g>
<g
   transform="translate(-1.997)"
   id="g184">
</g>
<g
   transform="translate(-1.997)"
   id="g186">
</g>
<g
   transform="translate(-1.997)"
   id="g188">
</g>
<g
   transform="translate(-1.997)"
   id="g190">
</g>
<g
   transform="translate(-1.997)"
   id="g192">
</g>
<g
   transform="translate(-1.997)"
   id="g194">
</g>
<g
   transform="translate(-1.997)"
   id="g196">
</g>
<g
   transform="translate(-1.997)"
   id="g198">
</g>
</svg>