<?xml version="1.0" encoding="UTF-8" standalone="no"?>
<svg
   xmlns:dc="http://purl.org/dc/elements/1.1/"
   xmlns:cc="http://creativecommons.org/ns#"
   xmlns:rdf="http://www.w3.org/1999/02/22-rdf-syntax-ns#"
   xmlns:svg="http://www.w3.org/2000/svg"
   xmlns="http://www.w3.org/2000/svg"
   version="1.1"
   id="layer"
   x="0px"
   y="0px"
   viewBox="0 0 600 191.52028"
   xml:space="preserve"
   width="600"
   height="191.52028"><metadata
   id="metadata63"><rdf:RDF><cc:Work
       rdf:about=""><dc:format>image/svg+xml</dc:format><dc:type
         rdf:resource="http://purl.org/dc/dcmitype/StillImage" /><dc:title></dc:title></cc:Work></rdf:RDF></metadata><defs
   id="defs61" />
<style
   type="text/css"
   id="style2">
	.st0{fill:#008265;}
</style>
<path
   d="m 241.1,108.58433 c 1.9,0.8 6.6,3.2 12,3.2 4.2,0 7.5,-1 7.5,-4.8 0,-1.9 -0.9,-3.6 -5.1,-6.1 l -4.7,-2.800004 c -4.8,-2.9 -10.2,-6 -10.2,-13.5 0,-6.6 6.4,-13.6 16.6,-13.6 6.1,0 10.9,1.6 12,2 l -0.7,8.9 c -2.9,-1.1 -6,-2.1 -10.2,-2.1 -4.7,0 -6.6,1.7 -6.6,4.7 0,2.6 2,4 5.4,6.1 l 5.7,3.6 c 6,3.8 8.9,6.500004 8.9,12.100004 0,8.8 -7.5,14.2 -17.9,14.2 -6,0 -10.9,-1.4 -13.3,-2.3 z"
   id="path4" />
<path
   d="m 304.9,91.584326 c 0,-8.5 -2.8,-12.8 -8,-12.8 -6.1,0 -8.6,6.4 -8.6,12.8 z m 8.8,25.800004 c -2.4,1 -7.5,3.1 -14.4,3.1 -15.5,0 -22.2,-11.1 -22.2,-24.100004 0,-14.3 7.5,-25.5 19.8,-25.5 10.3,0 19.2,6.1 19.2,25.6 v 2.2 h -27.7 c 0,8.200004 3.3,13.100004 12.2,13.100004 7.1,0 10.4,-2.2 12.6,-3.7 z"
   id="path6" />
<path
   d="m 322.9,79.584326 c 0,-3.4 -0.2,-6.1 -0.4,-7.8 h 11.6 c 0.1,2.5 0.4,5 0.4,7.5 h 0.2 c 1.7,-3.7 5.5,-8.3 12.1,-8.3 8.1,0 10.7,5 12.1,7.7 2.3,-3.3 5.8,-7.7 12.8,-7.7 10.4,0 13.8,7.5 13.8,19.1 V 119.68433 H 374 V 89.384326 c 0,-6 -1.9,-9 -6.1,-9 -5.1,0 -7.8,4.9 -7.8,10.2 V 119.68433 H 348.5 V 89.384326 c 0,-6 -1.9,-9 -6.2,-9 -5.1,0 -7.8,4.9 -7.8,10.2 v 29.100004 h -11.6 z"
   id="path8" />
<path
   d="m 414.8,111.98433 c 6.7,0 8.5,-5.6 8.5,-16.700004 0,-9.6 -2.2,-15.8 -8.7,-15.8 -6.3,0 -8.9,6.8 -8.9,16.1 -0.1,9.100004 2.3,16.400004 9.1,16.400004 m -9.2,-62.100004 v 28.8 h 0.2 c 1.7,-3.7 5.5,-7.7 12.4,-7.7 10.4,0 16.6,9.2 16.6,24.8 0,13.300004 -4.9,24.700004 -16.9,24.700004 -7.5,0 -10.9,-4.1 -12.8,-8.2 h -0.3 c 0,3.3 -0.2,6 -0.4,7.4 h -10.8 c 0.3,-1.8 0.4,-4.8 0.4,-8.2 V 49.784326 h 11.6 z"
   id="path10" />
<path
   d="m 474.7,118.58433 c -2.7,1 -6.7,2 -11.4,2 -15.9,0 -22.6,-11.1 -22.6,-24.700004 0,-13.7 7.1,-24.8 23.2,-24.8 3.6,0 7.9,1.1 10.1,2 l -0.7,9.1 c -2,-1 -4.9,-2.3 -8.1,-2.3 -8.8,0 -12.6,5.9 -12.6,16.1 0,8.900004 4.3,15.900004 13.1,15.900004 2.8,0 6.6,-1.3 8.2,-2.3 z"
   id="path12" />
<path
   d="m 499.8,112.28433 c 7.5,0 9.1,-8.6 9.1,-16.600004 0,-8 -1.7,-16.5 -9.1,-16.5 -7.5,0 -9.2,8.5 -9.2,16.5 -0.1,8.000004 1.7,16.600004 9.2,16.600004 m 0,-41.300004 c 9.8,0 21.1,5.1 21.1,24.7 0,20.100004 -11.3,24.800004 -21.1,24.800004 -9.8,0 -21.2,-4.7 -21.2,-24.800004 0,-19.6 11.4,-24.7 21.2,-24.7"
   id="path14" />
<path
   d="m 528.5,79.684326 c 0,-3 -0.1,-5.8 -0.4,-7.9 h 10.4 c 0.1,2.9 0.4,5.9 0.4,8.8 h 0.2 c 1.4,-3.7 5,-9.5 12.2,-9.5 0.7,0 1.3,0.2 2,0.3 v 10.8 c -1,-0.3 -2.1,-0.5 -3.3,-0.5 -4.8,0 -10,2.9 -10,11.8 V 119.78433 H 528.4 V 79.684326 Z"
   id="path16" />
<path
   d="m 579.7,111.98433 c 6.4,0 8.7,-6.3 8.7,-15.800004 0,-11.1 -1.8,-16.7 -8.5,-16.7 -6.8,0 -9.1,7.4 -9.1,16.4 0,9.300004 2.6,16.100004 8.9,16.100004 M 559.2,79.984326 c 0,-3.5 -0.1,-6.4 -0.4,-8.2 h 10.8 c 0.2,1.4 0.4,4.2 0.4,7.5 h 0.3 c 1.9,-4.1 5.3,-8.2 12.8,-8.2 11.9,0 16.9,11.4 16.9,24.7 0,15.700004 -6.3,24.800004 -16.6,24.800004 -6.9,0 -10.7,-3.9 -12.4,-7.6 h -0.2 v 27 h -11.6 z"
   id="path18" />
<path
   class="st0"
   d="m 89.3,107.08433 -86.7,2.9 c -0.1,0.5 -0.3,1.1 -0.4,1.7 l 91.4,4.8 c -1.4,-3.1 -2.8,-6.2 -4.3,-9.4"
   id="path20" />
<path
   class="st0"
   d="m 77.2,48.084326 -40.5,2.7 c -0.7,0.8 -1.4,1.5 -2,2.2 l 41.4,1.9 c 0.3,-2.4 0.6,-4.7 1.1,-6.8"
   id="path22" />
<path
   class="st0"
   d="m 75.5,67.784326 -54.5,2.5 c -0.6,0.8 -1.2,1.7 -1.7,2.6 l 57.4,2.8 c -0.6,-2.7 -1,-5.3 -1.2,-7.9"
   id="path24" />
<path
   class="st0"
   d="m 84.1,28.784326 -24.9,2 c -1.1,0.8 -2.1,1.6 -3.2,2.4 -0.2,0.2 -0.5,0.4 -0.8,0.6 l 26.2,0.7 c 0.8,-2 1.8,-3.9 2.7,-5.7"
   id="path26" />
<path
   class="st0"
   d="m 80.8,87.584326 -71.1,2.5 c -0.3,0.6 -0.6,1.3 -0.8,1.9 l 76,3.9 c -1.5,-2.8 -2.9,-5.5 -4.1,-8.3"
   id="path28" />
<path
   class="st0"
   d="m 111,56.384326 98.8,4.4 c 0,-7.5 -1.1,-14.7 -3.4,-21.3 l -98.8,6.5 c 0.8,3.4 2,6.8 3.4,10.4"
   id="path30" />
<path
   class="st0"
   d="m 104.4,6.7843262 c -7.7,2.6 -15.5,5.8999998 -23.2,9.9999998 l 11.1,0.2 c 3.8,-4.2 7.9,-7.5999998 12.1,-10.1999998"
   id="path32" />
<path
   class="st0"
   d="m 98.2,126.18433 -98.2,3.3 v 1.5 l 102.8,5.9 c -1.4,-3.5 -2.9,-7 -4.6,-10.7"
   id="path34" />
<path
   class="st0"
   d="m 197.7,23.284326 c -0.9,-1.1 -1.8,-2.2 -2.7,-3.2 l -87,6.8 c -0.2,0.5 -0.4,1.1 -0.6,1.7 -0.7,2 -1.1,4.2 -1.1,6.6 l 99.7,2.8 c -2.1,-5.3 -4.9,-10.2 -8.3,-14.7"
   id="path36" />
<path
   class="st0"
   d="M 138.8,0.08432624 C 126.6,1.2843262 118.7,6.2843262 112.4,17.384326 l 81.7,1.8 C 180.9,5.4843262 161.1,-0.81567376 138.8,0.08432624"
   id="path38" />
<path
   class="st0"
   d="m 128.5,94.984326 v 0 c 0.5,1.1 1.1,2.2 1.6,3.3 l 69.9,3.600004 c 2.9,-6.300004 5.2,-12.500004 6.8,-18.800004 l -82.3,2.9 c 1.4,3.1 2.7,6.1 4,9"
   id="path40" />
<path
   class="st0"
   d="m 137.4,118.78433 51.3,2.7 c 4,-5.9 7.5,-12 10.4,-18.1 l -65.9,2.2 c 1.9,4.3 3.4,8.6 4.2,13.2"
   id="path42" />
<path
   class="st0"
   d="m 120.4,77.584326 86.7,4.2 c 1.7,-6.8 2.6,-13.6 2.7,-20.1 l -94.8,4.3 c 1.7,3.8 3.6,7.8 5.4,11.6"
   id="path44" />
<path
   class="st0"
   d="m 138,131.68433 c -0.3,2.5 -0.6,4.9 -1,7.1 l 36.1,2.1 c 5.4,-5.7 10.2,-11.6 14.5,-17.7 l -49.4,1.7 c 0.1,2.2 0.1,4.4 -0.2,6.8"
   id="path46" />
<path
   class="st0"
   d="m 105.3,165.08433 -93.4,3.1 c 0,0.1 0.1,0.1 0.1,0.2 0.6,0.7 1.2,1.4 1.8,2.2 l 86.2,5.2 c 2,-3.2 3.7,-6.7 5.3,-10.7"
   id="path48" />
<path
   class="st0"
   d="m 92.8,184.38433 -56.3,1.8 c 11.6,4.6 25.1,6.2 39.6,4.9 6.7,-0.8 12.1,-2.9 16.7,-6.7"
   id="path50" />
<path
   class="st0"
   d="m 105.8,145.78433 -103.4,3.5 c 0.2,0.6 0.3,1.1 0.5,1.7 l 104.4,6 c 0.2,-3.5 -0.4,-7.2 -1.5,-11.2"
   id="path52" />
<path
   class="st0"
   d="m 118.2,176.68433 6.1,0.4 c 7.6,-3.7 15.1,-8.2 22.4,-13.3 l -18.6,0.6 c -3,4.9 -6.3,9 -9.9,12.3"
   id="path54" />
<path
   class="st0"
   d="m 131.1,158.28433 21.2,1.2 c 0.5,-0.4 1,-0.7 1.5,-1.1 6,-4.7 11.5,-9.6 16.6,-14.8 l -34.7,1.2 c -1.2,5 -2.7,9.5 -4.6,13.5"
   id="path56" />
</svg>
